<?xml version="1.0" encoding="UTF-8" standalone="no"?>
<!DOCTYPE svg PUBLIC "-//W3C//DTD SVG 1.1//EN" "http://www.w3.org/Graphics/SVG/1.1/DTD/svg11.dtd">
<svg xmlns="http://www.w3.org/2000/svg" version="1.1" viewBox="0.00 0.00 500.00 500.00">
<g stroke-width="1.50" fill="none" stroke-linecap="butt">
<path stroke="#f5f8f9" vector-effect="non-scaling-stroke" d="
  M 389.24 272.43
  Q 388.45 271.49 388.32 273.98
  Q 388.32 274.04 388.27 274.01
  Q 388.14 273.94 388.04 273.88
  Q 387.79 273.74 387.51 273.82
  Q 377.83 276.45 367.81 276.39
  C 365.96 276.38 364.35 277.23 362.50 277.57
  Q 361.97 277.67 361.57 278.03
  Q 360.06 279.40 358.05 278.60
  Q 357.65 278.45 357.26 278.59
  Q 353.12 280.05 349.40 278.32
  Q 349.02 278.14 348.98 277.73
  L 348.62 273.88
  Q 348.56 273.30 348.75 272.75
  Q 350.28 268.22 350.93 263.46
  Q 351.35 260.37 350.34 257.61
  Q 349.05 254.09 347.02 250.86
  A 0.37 0.37 0.0 0 0 346.34 250.98
  Q 346.26 251.34 345.82 251.54
  Q 345.64 251.63 345.61 251.43
  L 345.02 246.68"
/>
<path stroke="#b286e6" vector-effect="non-scaling-stroke" d="
  M 345.02 246.68
  L 341.99 225.76"
/>
<path stroke="#ef8093" vector-effect="non-scaling-stroke" d="
  M 341.99 225.76
  Q 338.35 215.03 333.10 205.49"
/>
<path stroke="#f48ca5" vector-effect="non-scaling-stroke" d="
  M 333.10 205.49
  Q 329.39 198.95 323.12 192.82"
/>
<path stroke="#f3c49f" vector-effect="non-scaling-stroke" d="
  M 323.12 192.82
  Q 322.71 191.35 324.45 189.96
  Q 329.19 186.17 333.10 182.18"
/>
<path stroke="#81bbff" vector-effect="non-scaling-stroke" d="
  M 333.10 182.18
  C 337.54 177.68 341.38 174.35 343.25 169.40"
/>
<path stroke="#8ac7ed" vector-effect="non-scaling-stroke" d="
  M 343.25 169.40
  L 346.46 162.27"
/>
<path stroke="#83d4de" vector-effect="non-scaling-stroke" d="
  M 346.46 162.27
  Q 347.16 161.16 347.32 159.72"
/>
<path stroke="#8af7b8" vector-effect="non-scaling-stroke" d="
  M 347.32 159.72
  Q 348.35 155.93 347.60 151.97"
/>
<path stroke="#99ea83" vector-effect="non-scaling-stroke" d="
  M 347.60 151.97
  Q 346.48 148.72 343.05 146.57"
/>
<path stroke="#ffe682" vector-effect="non-scaling-stroke" d="
  M 343.05 146.57
  Q 335.83 143.87 327.37 146.29"
/>
<path stroke="#f3ba92" vector-effect="non-scaling-stroke" d="
  M 327.37 146.29
  L 320.11 148.38"
/>
<path stroke="#fb8198" vector-effect="non-scaling-stroke" d="
  M 320.11 148.38
  L 309.29 153.44"
/>
<path stroke="#fdf7e2" vector-effect="non-scaling-stroke" d="
  M 309.29 153.44
  Q 308.89 153.03 307.63 153.13
  A 1.44 1.43 22.1 0 0 306.82 153.47
  Q 302.56 157.10 294.52 164.23
  Q 293.46 165.17 292.47 164.81"
/>
<path stroke="#99ea83" vector-effect="non-scaling-stroke" d="
  M 292.47 164.81
  L 283.42 160.51"
/>
<path stroke="#8af7b8" vector-effect="non-scaling-stroke" d="
  M 283.42 160.51
  Q 263.39 153.90 241.20 155.79"
/>
<path stroke="#fdfb85" vector-effect="non-scaling-stroke" d="
  M 241.20 155.79
  Q 213.59 158.28 192.46 176.67"
/>
<path stroke="#fbc081" vector-effect="non-scaling-stroke" d="
  M 192.46 176.67
  C 182.68 182.66 173.81 194.56 168.24 204.07"
/>
<path stroke="#fb8198" vector-effect="non-scaling-stroke" d="
  M 168.24 204.07
  Q 156.33 223.58 156.28 245.94"
/>
<path stroke="#e5808e" vector-effect="non-scaling-stroke" d="
  M 156.28 245.94
  L 156.89 265.57"
/>
<path stroke="#fbc081" vector-effect="non-scaling-stroke" d="
  M 156.89 265.57
  L 157.81 271.49"
/>
<path stroke="#f5f8f9" vector-effect="non-scaling-stroke" d="
  M 157.81 271.49
  L 157.64 272.08
  Q 157.49 272.62 156.93 272.61
  Q 156.77 272.61 156.60 272.61
  Q 156.14 272.63 156.14 272.17
  L 156.13 270.60
  Q 156.13 269.53 155.48 270.38
  L 153.93 272.42
  A 0.70 0.70 0.0 0 1 153.06 272.62
  Q 151.10 271.64 149.61 273.39
  Q 149.27 273.78 148.76 273.74
  Q 146.82 273.60 145.11 274.37
  Q 145.01 274.41 144.93 274.33
  L 144.62 274.03
  Q 144.48 273.88 144.28 273.92
  Q 142.08 274.29 139.88 274.62
  Q 139.80 274.64 135.72 275.60
  Q 133.39 276.16 130.93 275.77
  Q 130.40 275.69 129.88 275.84
  L 125.82 277.08
  Q 125.36 277.22 125.11 276.80
  Q 124.64 276.02 123.64 275.93
  C 122.16 275.81 121.67 277.24 119.82 276.28
  Q 119.36 276.04 119.01 276.44
  Q 117.16 278.54 114.45 279.09
  Q 113.82 279.22 113.87 279.86
  Q 113.96 280.99 113.07 280.67
  A 0.76 0.75 -82.8 0 0 112.07 281.45
  Q 112.43 285.38 111.07 288.98"
/>
<path stroke="#f56e04" vector-effect="non-scaling-stroke" d="
  M 188.47 291.87
  Q 183.92 294.02 181.52 298.45"
/>
<path stroke="#96ac06" vector-effect="non-scaling-stroke" d="
  M 181.52 298.45
  L 169.40 300.38"
/>
<path stroke="#e85146" vector-effect="non-scaling-stroke" d="
  M 323.12 192.82
  Q 316.69 197.03 310.90 203.13"
/>
<path stroke="#e34534" vector-effect="non-scaling-stroke" d="
  M 310.90 203.13
  L 260.93 249.43"
/>
<path stroke="#da452f" vector-effect="non-scaling-stroke" d="
  M 260.93 249.43
  L 255.50 254.85"
/>
<path stroke="#e87f33" vector-effect="non-scaling-stroke" d="
  M 255.50 254.85
  Q 254.06 254.58 253.79 255.56
  Q 253.69 255.92 253.35 256.07
  L 251.00 257.08
  Q 250.62 257.24 250.22 257.22
  Q 246.74 257.02 243.43 257.98
  Q 242.96 258.11 242.48 258.00
  C 240.11 257.46 237.96 258.79 236.10 258.98
  Q 232.93 259.31 229.73 259.63
  Q 228.13 259.78 223.72 262.62
  A 0.80 0.79 -41.8 0 1 222.78 262.57
  Q 221.80 261.77 221.02 262.09"
/>
<path stroke="#f3a944" vector-effect="non-scaling-stroke" d="
  M 221.02 262.09
  L 246.34 238.57"
/>
<path stroke="#24e33d" vector-effect="non-scaling-stroke" d="
  M 347.60 151.97
  Q 347.87 153.62 347.36 154.74
  Q 347.17 155.18 346.73 154.97
  Q 346.11 154.66 345.02 154.68
  Q 340.86 154.77 337.76 155.58
  Q 336.40 155.93 334.73 155.86
  Q 333.23 155.79 331.64 156.09"
/>
<path stroke="#fdec0a" vector-effect="non-scaling-stroke" d="
  M 229.12 191.48
  L 227.90 191.79
  A 0.23 0.23 0.0 0 1 227.62 191.57
  L 227.62 191.28
  Q 227.62 190.82 227.17 190.94
  L 219.69 192.93
  Q 219.13 193.08 218.62 192.82
  Q 216.86 191.93 214.94 192.57
  Q 214.55 192.70 214.36 193.05
  Q 213.73 194.18 211.98 193.94
  C 210.19 193.70 207.16 193.61 205.57 194.59
  Q 205.04 194.91 204.74 194.44
  Q 204.53 194.10 204.14 194.18
  Q 197.70 195.46 191.11 195.42
  Q 190.88 195.42 190.88 195.64
  Q 190.88 195.81 190.88 195.98
  Q 190.88 196.14 190.77 196.02
  L 190.59 195.82"
/>
<path stroke="#fabd08" vector-effect="non-scaling-stroke" d="
  M 190.59 195.82
  Q 190.02 185.96 192.46 176.67"
/>
<path stroke="#a3087b" vector-effect="non-scaling-stroke" d="
  M 341.99 225.76
  Q 340.73 225.83 340.58 226.09"
/>
<path stroke="#ec022d" vector-effect="non-scaling-stroke" d="
  M 340.58 226.09
  Q 339.83 222.29 337.11 219.69
  Q 336.78 219.37 336.74 218.92
  Q 336.31 214.67 333.47 211.48
  Q 333.15 211.12 332.68 211.05
  Q 331.21 210.83 329.74 210.49
  Q 329.66 210.47 328.89 210.12
  Q 328.13 209.77 327.65 211.02
  A 1.01 1.00 -88.6 0 1 327.02 211.63
  C 325.60 212.11 324.76 212.43 323.73 213.63
  Q 321.32 216.42 318.06 218.22
  Q 317.59 218.48 317.34 218.94
  Q 316.08 221.30 313.80 222.37
  Q 313.30 222.60 312.99 223.06
  Q 311.58 225.10 309.57 226.65
  Q 309.17 226.95 308.67 226.96
  Q 307.71 226.97 307.54 227.93
  Q 307.46 228.41 307.09 228.73
  Q 304.95 230.58 302.97 232.51
  Q 302.33 233.12 300.99 235.42
  C 299.53 237.92 297.06 237.98 296.12 241.56
  Q 296.06 241.79 296.26 241.66
  Q 298.90 239.99 301.82 239.62
  A 0.43 0.41 -73.2 0 0 302.10 239.46
  Q 302.21 239.32 302.30 239.18
  Q 302.55 238.80 302.99 238.69
  Q 306.92 237.77 310.50 235.91
  Q 310.64 235.84 310.80 235.90
  Q 311.12 236.02 310.83 236.21
  C 308.69 237.62 307.37 238.22 304.38 239.38
  Q 302.76 240.01 301.10 241.23
  Q 296.84 244.37 292.55 247.49
  C 290.66 248.87 289.41 250.44 287.98 252.24"
/>
<path stroke="#741a81" vector-effect="non-scaling-stroke" d="
  M 287.98 252.24
  Q 288.61 252.19 287.72 252.50"
/>
<path stroke="#7f321a" vector-effect="non-scaling-stroke" d="
  M 287.72 252.50
  L 283.15 256.32"
/>
<path stroke="#d60123" vector-effect="non-scaling-stroke" d="
  M 283.15 256.32
  Q 276.36 261.63 268.65 264.71
  Q 268.12 264.92 267.59 264.73
  L 267.00 264.53
  Q 266.27 264.27 266.13 265.03
  Q 266.09 265.25 265.87 265.37
  Q 265.54 265.54 265.73 265.22
  Q 266.21 264.43 265.43 263.76
  A 1.70 1.69 42.0 0 1 265.30 261.31
  Q 267.87 258.60 270.50 255.37
  Q 271.21 254.50 272.31 254.33
  A 0.98 0.95 10.3 0 0 273.00 253.87
  Q 274.17 251.91 276.07 250.51
  Q 276.48 250.22 276.98 250.11
  Q 279.27 249.61 280.48 247.77
  Q 282.27 245.06 282.33 244.99
  Q 283.73 243.43 285.15 241.86
  Q 285.41 241.57 285.55 241.20
  Q 285.95 240.14 286.92 240.11
  A 1.12 1.11 20.8 0 0 287.71 239.76
  Q 291.85 235.33 296.14 231.08
  Q 296.79 230.44 300.13 226.72
  Q 302.21 224.41 304.72 222.48
  A 0.68 0.67 79.3 0 0 304.94 222.15
  Q 305.31 220.84 306.45 220.04
  Q 307.42 219.35 306.40 219.61
  Q 306.15 219.68 305.89 219.90
  Q 304.14 221.40 301.19 223.47
  Q 300.17 224.19 296.05 226.31
  Q 293.37 227.69 291.16 229.79
  Q 290.03 230.87 289.11 231.43
  Q 287.99 232.11 286.84 232.76
  Q 285.31 233.62 283.67 235.10
  Q 280.06 238.39 275.39 240.12
  A 1.50 1.50 0.0 0 0 274.57 240.84
  Q 273.13 243.50 269.91 243.74
  Q 269.36 243.78 269.11 244.26
  Q 268.33 245.77 266.44 246.13
  Q 266.18 246.18 266.13 246.44
  Q 266.10 246.63 266.14 246.79
  Q 266.31 247.38 265.70 247.33
  Q 263.08 247.10 261.89 249.66
  Q 261.66 250.16 261.20 249.85
  Q 261.02 249.73 260.93 249.43"
/>
<path stroke="#99c510" vector-effect="non-scaling-stroke" d="
  M 229.64 222.15
  L 228.78 218.26"
/>
<path stroke="#99d207" vector-effect="non-scaling-stroke" d="
  M 228.78 218.26
  L 227.98 201.45"
/>
<path stroke="#99db07" vector-effect="non-scaling-stroke" d="
  M 227.98 201.45
  L 228.13 200.96"
/>
<path stroke="#24e33d" vector-effect="non-scaling-stroke" d="
  M 283.42 160.51
  L 284.10 162.08
  Q 284.31 162.56 283.90 162.88
  Q 280.91 165.25 278.21 167.88
  Q 275.98 170.05 272.58 172.77
  C 270.05 174.78 264.98 178.95 263.52 182.13
  Q 263.31 182.59 262.88 182.85
  Q 261.37 183.78 261.34 185.46
  Q 261.34 185.95 261.05 186.34
  L 255.57 193.81
  Q 255.30 194.18 254.85 194.26
  Q 251.76 194.80 248.82 195.80
  C 245.04 197.09 242.31 195.78 239.46 199.76
  Q 239.16 200.18 238.64 200.15
  Q 236.65 200.04 236.73 201.58
  Q 236.76 202.20 236.14 202.18
  Q 231.30 202.02 230.54 206.50
  A 0.42 0.42 0.0 0 1 229.73 206.55
  Q 229.31 205.08 229.76 203.34
  Q 229.87 202.92 229.74 202.68
  Q 229.56 202.30 229.06 202.36
  Q 228.59 202.41 228.59 202.89
  L 228.69 210.32
  Q 228.69 210.51 228.53 210.40
  Q 228.42 210.33 228.32 210.20
  Q 228.18 210.03 228.17 209.75
  Q 228.09 205.36 228.13 200.96"
/>
<path stroke="#8ae73d" vector-effect="non-scaling-stroke" d="
  M 228.13 200.96
  L 229.12 191.48"
/>
<path stroke="#88f43f" vector-effect="non-scaling-stroke" d="
  M 229.12 191.48
  Q 231.08 178.80 235.58 168.79
  Q 239.67 159.67 241.20 155.79"
/>
<path stroke="#fde6b2" vector-effect="non-scaling-stroke" d="
  M 310.91 158.23
  Q 310.69 158.80 311.21 159.40
  Q 311.56 159.81 311.03 159.86
  C 309.74 159.99 309.10 160.07 308.17 161.06
  Q 301.37 168.36 293.51 174.43
  Q 286.31 180.00 283.24 182.90
  Q 278.29 187.57 273.51 192.43
  Q 270.63 195.36 266.42 198.52
  Q 260.59 202.89 255.50 208.12
  Q 253.30 210.38 248.61 211.50
  C 246.62 211.97 245.01 213.30 242.74 213.43
  Q 242.23 213.46 241.95 213.87
  Q 241.49 214.53 240.72 214.37
  Q 240.25 214.27 240.05 213.84
  Q 239.86 213.42 239.86 212.94"
/>
<path stroke="#98e366" vector-effect="non-scaling-stroke" d="
  M 239.86 212.94
  L 292.47 164.81"
/>
<path stroke="#0f9dcd" vector-effect="non-scaling-stroke" d="
  M 346.46 162.27
  Q 346.84 157.48 340.47 158.80
  Q 339.98 158.91 339.56 159.17
  Q 339.04 159.50 338.45 159.53
  Q 337.69 159.56 337.44 159.71
  Q 336.74 160.12 336.78 160.86
  Q 336.80 161.40 336.26 161.49
  L 332.30 162.16
  Q 331.78 162.25 331.30 162.02
  L 330.01 161.42
  Q 329.57 161.21 329.61 160.73
  L 329.78 158.64"
/>
<path stroke="#99d207" vector-effect="non-scaling-stroke" d="
  M 343.05 146.57
  C 337.92 149.34 333.23 149.46 331.64 156.09"
/>
<path stroke="#8ade3c" vector-effect="non-scaling-stroke" d="
  M 331.64 156.09
  Q 330.14 157.09 329.48 159.28"
/>
<path stroke="#8baf71" vector-effect="non-scaling-stroke" d="
  M 329.48 159.28
  Q 329.53 159.56 329.32 159.97"
/>
<path stroke="#da7444" vector-effect="non-scaling-stroke" d="
  M 329.32 159.97
  Q 329.43 158.55 328.95 159.00"
/>
<path stroke="#f47329" vector-effect="non-scaling-stroke" d="
  M 328.95 159.00
  Q 327.72 157.37 325.51 156.23"
/>
<path stroke="#fc681c" vector-effect="non-scaling-stroke" d="
  M 325.51 156.23
  Q 325.44 155.44 325.33 156.14"
/>
<path stroke="#f4a116" vector-effect="non-scaling-stroke" d="
  M 325.33 156.14
  Q 325.18 154.15 326.31 152.66
  A 0.72 0.67 -22.6 0 0 326.45 152.35
  L 327.34 147.44
  A 0.18 0.18 0.0 0 0 327.24 147.25
  Q 327.07 147.16 326.90 147.12
  Q 326.45 147.01 326.89 146.87
  Q 327.11 146.79 327.32 146.77
  A 0.34 0.33 2.3 0 0 327.61 146.51
  Q 327.67 146.28 327.37 146.29"
/>
<path stroke="#fcb106" vector-effect="non-scaling-stroke" d="
  M 190.59 195.82
  L 190.46 196.81"
/>
<path stroke="#f07c15" vector-effect="non-scaling-stroke" d="
  M 190.46 196.81
  C 189.36 195.84 189.95 195.34 189.45 194.25
  Q 189.12 193.53 189.12 194.32
  L 189.12 194.76
  Q 189.12 195.27 188.72 195.58
  Q 183.08 199.87 180.25 200.87
  Q 177.40 201.89 175.95 203.07
  A 2.50 2.38 16.0 0 1 175.09 203.52
  Q 172.96 204.13 171.72 205.99
  Q 171.40 206.47 170.86 206.68
  L 170.07 206.97
  Q 169.58 207.15 169.43 206.65
  L 168.94 205.02"
/>
<path stroke="#f8431b" vector-effect="non-scaling-stroke" d="
  M 168.94 205.02
  Q 169.18 204.27 168.24 204.07"
/>
<path stroke="#a980e1" vector-effect="non-scaling-stroke" d="
  M 345.02 246.68
  Q 346.22 290.81 314.32 321.32
  Q 313.24 322.35 311.15 323.39"
/>
<path stroke="#3543e6" vector-effect="non-scaling-stroke" d="
  M 311.15 323.39
  Q 321.91 294.41 312.40 265.26
  Q 311.11 261.30 309.11 258.26"
/>
<path stroke="#3431e6" vector-effect="non-scaling-stroke" d="
  M 309.11 258.26
  L 304.51 249.59"
/>
<path stroke="#3720d3" vector-effect="non-scaling-stroke" d="
  M 304.51 249.59
  Q 303.65 246.68 301.86 244.64
  Q 301.53 244.25 301.03 244.34
  L 298.21 244.83"
/>
<path stroke="#0d84ed" vector-effect="non-scaling-stroke" d="
  M 343.25 169.40
  Q 340.42 166.39 336.29 167.22
  Q 335.82 167.32 335.49 167.68
  Q 332.94 170.48 329.40 169.94
  Q 328.88 169.86 328.51 170.23
  L 328.27 170.47
  A 0.39 0.39 0.0 0 1 327.64 170.04
  L 328.45 168.22
  Q 328.62 167.85 328.32 167.58
  Q 327.44 166.77 328.08 165.31"
/>
<path stroke="#3e4fd4" vector-effect="non-scaling-stroke" d="
  M 328.08 165.31
  L 328.82 161.78"
/>
<path stroke="#f10e3e" vector-effect="non-scaling-stroke" d="
  M 325.51 156.23
  Q 321.35 155.92 320.63 152.89
  A 0.79 0.78 -19.8 0 0 319.51 152.37
  L 310.74 156.75
  Q 310.41 156.91 310.37 157.28
  Q 310.33 157.70 310.71 157.80"
/>
<path stroke="#fa7a7b" vector-effect="non-scaling-stroke" d="
  M 310.71 157.80
  Q 306.89 154.31 309.29 153.44"
/>
<path stroke="#f2ba7c" vector-effect="non-scaling-stroke" d="
  M 157.81 271.49
  Q 161.46 286.71 169.40 300.38"
/>
<path stroke="#90e47e" vector-effect="non-scaling-stroke" d="
  M 169.40 300.38
  C 174.58 307.53 180.18 316.64 186.99 321.77
  Q 193.85 326.95 200.36 331.93"
/>
<path stroke="#81f0b3" vector-effect="non-scaling-stroke" d="
  M 200.36 331.93
  Q 201.21 332.02 201.86 332.81"
/>
<path stroke="#80e0f8" vector-effect="non-scaling-stroke" d="
  M 201.86 332.81
  L 209.12 336.35"
/>
<path stroke="#85e5f4" vector-effect="non-scaling-stroke" d="
  M 209.12 336.35
  Q 218.14 341.60 225.50 343.28
  Q 239.92 346.59 256.75 345.68"
/>
<path stroke="#77a2f9" vector-effect="non-scaling-stroke" d="
  M 256.75 345.68
  L 275.99 342.75"
/>
<path stroke="#78b5fa" vector-effect="non-scaling-stroke" d="
  M 275.99 342.75
  Q 296.20 336.76 311.15 323.39"
/>
<path stroke="#7581a0" vector-effect="non-scaling-stroke" d="
  M 333.10 182.18
  L 325.23 174.55"
/>
<path stroke="#e40d3a" vector-effect="non-scaling-stroke" d="
  M 333.10 205.49
  Q 322.72 209.72 313.19 215.20
  C 311.01 216.46 307.21 216.33 304.73 216.23
  Q 304.31 216.22 304.10 216.57
  Q 302.76 218.76 300.40 216.78
  A 0.57 0.57 0.0 0 1 300.28 216.04
  Q 301.82 213.62 303.99 211.63
  Q 306.70 209.16 308.05 207.64
  Q 310.82 204.49 314.08 201.82
  Q 314.95 201.10 314.76 200.70
  Q 314.62 200.42 314.43 200.67
  Q 312.07 203.77 310.90 203.13"
/>
<path stroke="#0fcd98" vector-effect="non-scaling-stroke" d="
  M 347.32 159.72
  Q 347.97 156.36 344.22 156.16
  Q 336.20 155.74 329.78 158.64"
/>
<path stroke="#16c0a7" vector-effect="non-scaling-stroke" d="
  M 329.78 158.64
  Q 329.63 158.96 329.48 159.28"
/>
<path stroke="#f03c2b" vector-effect="non-scaling-stroke" d="
  M 325.33 156.14
  Q 321.33 154.87 321.13 151.50
  Q 320.99 149.12 320.11 148.38"
/>
<path stroke="#f52e1b" vector-effect="non-scaling-stroke" d="
  M 172.20 222.74
  Q 176.15 234.23 178.80 239.24
  Q 180.58 242.61 186.87 250.21"
/>
<path stroke="#e20227" vector-effect="non-scaling-stroke" d="
  M 186.87 250.21
  Q 184.51 252.89 180.51 253.86
  C 177.76 254.53 176.16 255.40 173.94 256.68
  Q 173.75 256.79 173.57 256.79
  Q 173.37 256.78 173.16 256.73
  Q 172.69 256.61 172.26 256.83
  Q 168.39 258.83 165.01 255.50
  Q 159.41 250.00 157.58 243.42
  Q 157.36 242.63 157.10 243.41
  L 156.28 245.94"
/>
<path stroke="#e55b1b" vector-effect="non-scaling-stroke" d="
  M 190.29 252.32
  Q 178.99 259.05 166.09 263.18"
/>
<path stroke="#e55213" vector-effect="non-scaling-stroke" d="
  M 166.09 263.18
  L 159.52 264.97"
/>
<path stroke="#e24211" vector-effect="non-scaling-stroke" d="
  M 159.52 264.97
  L 156.89 265.57"
/>
<path stroke="#30c507" vector-effect="non-scaling-stroke" d="
  M 262.53 298.28
  Q 262.34 297.79 262.38 297.23
  Q 262.40 296.77 262.00 296.99
  Q 261.85 297.07 261.69 297.15
  A 0.15 0.14 85.9 0 1 261.49 296.97
  L 261.58 296.67
  Q 261.78 296.03 261.15 296.27
  Q 260.09 296.70 257.99 297.96
  Q 256.96 298.58 255.79 297.93
  Q 255.44 297.73 255.08 297.93
  Q 248.05 301.73 240.14 302.01
  Q 237.39 302.11 235.42 302.43
  Q 233.05 302.81 230.61 303.07
  Q 230.11 303.12 229.79 303.52
  Q 228.67 304.94 227.00 305.35
  Q 224.28 306.02 223.64 306.29
  Q 221.49 307.20 219.13 307.55
  Q 218.95 307.57 218.83 307.50
  Q 218.64 307.39 218.60 307.18
  Q 218.55 306.86 218.24 306.90
  Q 210.32 307.74 203.35 303.98
  A 1.33 1.29 52.3 0 0 202.43 303.85
  Q 198.89 304.61 197.75 304.09
  Q 194.97 302.83 192.08 301.85
  Q 192.00 301.82 192.00 301.73
  Q 192.00 301.61 192.00 301.48
  Q 192.00 301.44 191.96 301.44
  Q 189.30 301.28 184.10 300.38
  Q 182.00 300.02 181.52 298.45"
/>
<path stroke="#8f8705" vector-effect="non-scaling-stroke" d="
  M 181.52 298.45
  L 213.39 291.85"
/>
<path stroke="#24e33d" vector-effect="non-scaling-stroke" d="
  M 206.22 330.77
  L 200.36 331.93"
/>
<path stroke="#fb9307" vector-effect="non-scaling-stroke" d="
  M 197.59 283.25
  Q 193.80 281.78 189.78 281.76
  Q 189.52 281.76 189.40 281.53
  Q 189.33 281.39 189.22 281.28
  Q 189.06 281.14 188.75 281.13
  Q 177.47 280.72 166.38 278.58
  C 164.53 278.22 163.40 278.46 162.38 276.48
  Q 159.59 271.08 159.52 264.97"
/>
<path stroke="#ed6715" vector-effect="non-scaling-stroke" d="
  M 222.43 285.39
  Q 220.37 285.31 218.01 286.15
  Q 212.05 288.29 205.31 288.01
  Q 202.47 287.90 200.30 288.57
  Q 196.78 289.67 193.28 290.86
  Q 192.82 291.02 192.33 290.99
  Q 190.81 290.89 188.47 291.87"
/>
<path stroke="#f07c15" vector-effect="non-scaling-stroke" d="
  M 188.47 291.87
  L 197.59 283.25"
/>
<path stroke="#f38c17" vector-effect="non-scaling-stroke" d="
  M 197.59 283.25
  L 211.21 271.04"
/>
<path stroke="#763215" vector-effect="non-scaling-stroke" d="
  M 283.15 256.32
  Q 273.72 264.64 263.17 271.30
  C 261.15 272.57 257.34 274.02 254.82 276.49"
/>
<path stroke="#754411" vector-effect="non-scaling-stroke" d="
  M 254.82 276.49
  Q 236.76 284.80 217.60 290.48"
/>
<path stroke="#df2d11" vector-effect="non-scaling-stroke" d="
  M 217.60 290.48
  L 222.43 285.39"
/>
<path stroke="#da3b21" vector-effect="non-scaling-stroke" d="
  M 222.43 285.39
  Q 234.95 274.91 238.36 271.11
  C 244.16 264.64 250.41 260.28 255.50 254.85"
/>
<path stroke="#f3b370" vector-effect="non-scaling-stroke" d="
  M 320.94 169.59
  Q 316.79 173.56 312.40 177.14
  C 305.87 182.47 300.50 188.55 294.21 193.99
  Q 288.01 199.36 284.04 203.29
  Q 276.16 211.10 267.89 218.50
  C 260.98 224.69 253.80 232.19 246.34 238.57"
/>
<path stroke="#ffd374" vector-effect="non-scaling-stroke" d="
  M 246.34 238.57
  Q 239.19 234.46 234.84 233.39
  Q 233.69 233.11 229.40 233.51
  Q 228.77 233.57 228.62 234.19
  Q 228.53 234.56 227.96 234.41
  Q 227.43 234.28 227.12 234.73
  Q 224.84 238.03 221.30 237.26
  Q 219.51 236.87 218.75 235.49
  Q 217.88 233.92 218.55 232.03"
/>
<path stroke="#fec85c" vector-effect="non-scaling-stroke" d="
  M 218.55 232.03
  L 229.64 222.15"
/>
<path stroke="#99d953" vector-effect="non-scaling-stroke" d="
  M 229.64 222.15
  Q 235.32 218.01 239.86 212.94"
/>
<path stroke="#3543e6" vector-effect="non-scaling-stroke" d="
  M 328.08 165.31
  Q 325.61 170.36 325.23 174.55"
/>
<path stroke="#a74c87" vector-effect="non-scaling-stroke" d="
  M 325.23 174.55
  Q 323.40 173.01 322.30 170.76"
/>
<path stroke="#6555af" vector-effect="non-scaling-stroke" d="
  M 329.32 159.97
  L 328.82 161.78"
/>
<path stroke="#8d14a8" vector-effect="non-scaling-stroke" d="
  M 328.82 161.78
  Q 326.75 163.92 323.98 163.07
  A 1.24 1.23 19.2 0 0 322.48 163.79
  Q 321.11 167.19 322.30 170.76"
/>
<path stroke="#ce5261" vector-effect="non-scaling-stroke" d="
  M 322.30 170.76
  L 320.94 169.59"
/>
<path stroke="#d97b91" vector-effect="non-scaling-stroke" d="
  M 320.94 169.59
  L 318.91 167.27"
/>
<path stroke="#f49f37" vector-effect="non-scaling-stroke" d="
  M 221.02 262.09
  Q 220.57 262.26 220.33 262.66"
/>
<path stroke="#ffbf30" vector-effect="non-scaling-stroke" d="
  M 220.33 262.66
  L 221.13 261.00
  Q 221.35 260.55 220.93 260.27
  Q 214.24 255.81 206.22 254.65
  A 0.85 0.84 82.0 0 1 205.58 254.16
  Q 205.18 253.29 204.15 253.26
  Q 202.61 253.21 202.24 253.11
  Q 198.30 251.98 193.84 250.42"
/>
<path stroke="#ffd607" vector-effect="non-scaling-stroke" d="
  M 227.98 201.45
  Q 227.15 205.13 227.31 208.75
  Q 227.32 208.93 227.18 208.95
  Q 226.94 208.99 226.93 208.74
  L 226.86 203.81
  Q 226.85 203.44 226.94 203.80
  Q 227.25 205.20 225.49 205.22
  C 223.91 205.25 222.30 205.95 220.78 205.84
  Q 216.23 205.53 211.83 206.51
  Q 209.04 207.13 206.62 207.04
  Q 199.04 206.75 191.64 208.25"
/>
<path stroke="#f4aa16" vector-effect="non-scaling-stroke" d="
  M 191.64 208.25
  L 190.46 196.81"
/>
<path stroke="#af097f" vector-effect="non-scaling-stroke" d="
  M 340.58 226.09
  Q 332.12 228.01 324.14 230.92
  Q 322.40 231.55 320.91 232.74
  Q 320.55 233.03 320.10 233.13
  Q 318.62 233.44 315.67 234.95
  Q 306.62 239.54 298.21 244.83"
/>
<path stroke="#801b85" vector-effect="non-scaling-stroke" d="
  M 298.21 244.83
  L 287.98 252.24"
/>
<path stroke="#0543ec" vector-effect="non-scaling-stroke" d="
  M 304.51 249.59
  Q 301.35 248.43 299.61 250.56
  Q 297.63 253.00 291.65 256.58
  C 290.96 256.99 290.39 257.77 289.81 258.35
  Q 289.43 258.73 289.42 259.26
  Q 289.34 262.69 291.17 267.40
  Q 292.65 271.24 292.55 278.18
  A 0.35 0.35 0.0 0 1 292.02 278.47
  L 290.71 277.68
  Q 290.34 277.46 289.99 277.73
  Q 288.20 279.13 286.35 280.52
  Q 284.51 281.92 283.34 283.70
  Q 281.91 285.87 280.57 288.07
  Q 280.21 288.64 279.72 289.01
  A 1.18 1.14 -14.7 0 0 279.26 289.77
  Q 278.55 294.50 277.31 299.11
  Q 277.31 299.11 277.32 299.12
  Q 277.36 299.13 277.29 299.12
  Q 277.27 299.12 277.27 299.10
  Q 278.02 296.90 277.16 295.24"
/>
<path stroke="#1386e7" vector-effect="non-scaling-stroke" d="
  M 277.16 295.24
  L 277.55 289.32"
/>
<path stroke="#0e80ea" vector-effect="non-scaling-stroke" d="
  M 277.55 289.32
  L 277.97 278.81"
/>
<path stroke="#086ecc" vector-effect="non-scaling-stroke" d="
  M 277.97 278.81
  Q 278.28 276.87 277.77 275.05"
/>
<path stroke="#135c6f" vector-effect="non-scaling-stroke" d="
  M 277.77 275.05
  L 279.19 271.38"
/>
<path stroke="#144a73" vector-effect="non-scaling-stroke" d="
  M 279.19 271.38
  Q 280.59 266.07 282.22 260.92
  Q 283.01 258.41 284.50 256.45
  Q 286.04 254.44 287.72 252.50"
/>
<path stroke="#1f7409" vector-effect="non-scaling-stroke" d="
  M 279.19 271.38
  L 278.63 268.29
  Q 278.51 267.63 277.89 267.87
  L 269.44 271.06
  Q 268.88 271.27 268.62 270.73
  Q 268.50 270.47 268.10 270.65
  A 0.28 0.28 0.0 0 1 267.79 270.20
  Q 268.11 269.89 268.29 269.35
  A 0.14 0.14 0.0 0 0 268.07 269.19
  Q 261.79 273.69 254.82 276.49"
/>
<path stroke="#ffc10f" vector-effect="non-scaling-stroke" d="
  M 228.78 218.26
  Q 229.08 222.51 224.58 221.02
  Q 224.15 220.87 223.69 220.94
  L 196.06 225.15"
/>
<path stroke="#f99305" vector-effect="non-scaling-stroke" d="
  M 196.06 225.15
  Q 193.33 218.41 191.94 210.64"
/>
<path stroke="#ffbf30" vector-effect="non-scaling-stroke" d="
  M 218.55 232.03
  Q 212.76 237.52 205.12 242.29"
/>
<path stroke="#cf1a67" vector-effect="non-scaling-stroke" d="
  M 328.95 159.00
  L 325.25 158.12
  Q 324.87 158.03 324.55 158.28
  L 320.93 161.07
  A 0.96 0.95 66.3 0 0 320.58 161.99
  Q 321.05 164.51 319.48 166.38
  Q 319.39 166.49 319.45 166.62
  L 319.65 166.99
  Q 319.82 167.31 319.35 167.15
  Q 319.14 167.08 318.91 167.27"
/>
<path stroke="#f47b75" vector-effect="non-scaling-stroke" d="
  M 318.91 167.27
  L 310.91 158.23"
/>
<path stroke="#f38588" vector-effect="non-scaling-stroke" d="
  M 310.91 158.23
  Q 310.12 157.46 310.71 157.80"
/>
<path stroke="#f4a116" vector-effect="non-scaling-stroke" d="
  M 191.64 208.25
  L 191.94 210.64"
/>
<path stroke="#ed6715" vector-effect="non-scaling-stroke" d="
  M 191.94 210.64
  Q 191.59 211.37 191.86 212.48
  A 0.96 0.96 0.0 0 1 191.48 213.50
  Q 186.41 217.07 180.61 219.25
  A 0.36 0.36 0.0 0 0 180.38 219.64
  L 180.51 220.79
  Q 180.59 221.44 179.95 221.56
  L 175.73 222.35
  Q 175.15 222.46 174.95 223.01
  Q 174.63 223.85 173.64 223.59
  Q 173.39 223.52 173.38 223.27
  Q 173.37 223.13 173.37 223.00
  Q 173.38 222.71 172.65 222.82
  Q 172.45 222.85 172.20 222.74"
/>
<path stroke="#f03c2b" vector-effect="non-scaling-stroke" d="
  M 172.20 222.74
  Q 169.43 214.03 168.94 205.02"
/>
<path stroke="#0366ff" vector-effect="non-scaling-stroke" d="
  M 309.11 258.26
  L 306.08 253.21
  A 0.75 0.75 0.0 0 0 304.73 253.82
  Q 304.93 254.47 304.27 255.50
  Q 300.70 261.02 295.36 264.86
  C 293.15 266.45 293.91 268.91 293.70 270.76
  Q 293.08 276.01 293.98 281.16
  Q 295.02 287.07 295.07 288.95
  C 295.33 298.77 293.62 307.88 290.96 317.31
  Q 290.31 319.59 289.37 321.47
  Q 285.91 328.39 281.29 334.58
  Q 280.96 335.02 280.44 335.20
  Q 279.27 335.61 278.50 336.51
  Q 278.37 336.66 278.54 336.77
  Q 278.66 336.86 278.77 336.88
  Q 278.77 336.88 278.74 336.90
  Q 277.00 338.48 277.19 340.86
  Q 277.22 341.30 276.80 341.44
  Q 275.29 341.93 275.99 342.75"
/>
<path stroke="#1096f9" vector-effect="non-scaling-stroke" d="
  M 256.75 345.68
  Q 254.55 345.87 257.28 343.09
  Q 258.30 342.06 258.90 341.20
  C 269.23 326.33 274.52 313.25 277.16 295.24"
/>
<path stroke="#19d4f8" vector-effect="non-scaling-stroke" d="
  M 277.55 289.32
  L 273.60 298.46
  Q 273.37 299.01 273.38 298.50
  Q 273.39 298.36 273.37 298.21
  Q 273.30 297.72 272.96 298.09
  Q 270.05 301.25 267.25 304.52
  Q 266.60 305.28 265.05 306.45
  Q 264.02 307.23 262.83 308.46
  Q 259.66 311.73 254.64 315.33
  C 253.43 316.20 252.77 317.56 251.52 318.52
  Q 246.12 322.64 240.29 326.19
  Q 239.92 326.41 239.74 326.80
  Q 239.40 327.55 238.96 328.12
  Q 238.58 328.61 237.65 328.88
  Q 235.11 329.60 233.22 331.44
  Q 232.85 331.79 232.37 331.96
  L 224.15 334.77
  Q 223.80 334.88 223.46 334.78
  L 221.56 334.24
  Q 221.18 334.13 220.84 334.34
  Q 220.04 334.84 218.00 335.66
  Q 216.25 336.36 217.41 338.05
  Q 217.99 338.89 217.01 338.61
  L 209.12 336.35"
/>
<path stroke="#15dfb7" vector-effect="non-scaling-stroke" d="
  M 201.86 332.81
  L 206.22 330.77"
/>
<path stroke="#24d281" vector-effect="non-scaling-stroke" d="
  M 206.22 330.77
  Q 219.87 326.51 229.62 322.12
  Q 247.72 313.99 262.33 298.76"
/>
<path stroke="#f8870e" vector-effect="non-scaling-stroke" d="
  M 196.06 225.15
  Q 198.28 235.66 205.12 242.29"
/>
<path stroke="#f99126" vector-effect="non-scaling-stroke" d="
  M 205.12 242.29
  L 193.84 250.42"
/>
<path stroke="#f8870e" vector-effect="non-scaling-stroke" d="
  M 193.84 250.42
  L 190.29 252.32"
/>
<path stroke="#df2d11" vector-effect="non-scaling-stroke" d="
  M 190.29 252.32
  L 186.87 250.21"
/>
<path stroke="#f3951f" vector-effect="non-scaling-stroke" d="
  M 220.33 262.66
  L 211.21 271.04"
/>
<path stroke="#feac11" vector-effect="non-scaling-stroke" d="
  M 211.21 271.04
  Q 210.07 267.15 203.14 267.46
  A 1.48 1.43 59.1 0 1 202.25 267.22
  Q 199.16 265.19 195.63 264.88
  Q 190.54 264.43 190.44 264.41
  Q 185.98 263.65 181.48 263.05
  Q 178.86 262.71 174.95 263.11
  Q 170.68 263.56 166.09 263.18"
/>
<path stroke="#139862" vector-effect="non-scaling-stroke" d="
  M 277.77 275.05
  Q 275.14 281.87 270.51 287.49"
/>
<path stroke="#259d06" vector-effect="non-scaling-stroke" d="
  M 270.51 287.49
  L 271.92 282.92
  Q 272.07 282.43 272.46 282.09
  Q 274.55 280.33 275.90 277.92
  Q 276.28 277.24 275.69 277.75
  Q 274.88 278.46 273.84 278.58
  Q 273.35 278.64 272.94 278.91
  C 271.15 280.08 269.04 280.84 267.23 281.83
  Q 263.72 283.75 259.68 283.88
  C 258.22 283.93 256.82 284.57 255.27 284.45
  Q 254.82 284.42 254.43 284.62
  C 252.75 285.47 251.09 286.00 249.65 287.22
  Q 245.11 291.04 239.64 293.33
  Q 239.20 293.51 238.73 293.46
  C 236.17 293.17 233.59 294.21 231.37 294.10
  Q 226.27 293.87 221.20 293.19
  Q 220.79 293.13 220.55 292.80
  Q 220.09 292.18 219.33 292.29
  Q 218.38 292.43 218.13 292.40
  Q 215.81 292.14 213.39 291.85"
/>
<path stroke="#887005" vector-effect="non-scaling-stroke" d="
  M 213.39 291.85
  L 217.60 290.48"
/>
<path stroke="#0ebcdd" vector-effect="non-scaling-stroke" d="
  M 277.97 278.81
  Q 275.49 282.56 273.47 286.49
  Q 269.51 294.20 262.33 298.76"
/>
<path stroke="#1ec063" vector-effect="non-scaling-stroke" d="
  M 262.33 298.76
  Q 262.24 298.53 262.53 298.28"
/>
<path stroke="#1aaf62" vector-effect="non-scaling-stroke" d="
  M 262.53 298.28
  Q 267.14 293.32 270.51 287.49"
/>
</g>
<path fill="#fefefe" d="
  M 389.24 272.43
  Q 388.45 271.49 388.32 273.98
  Q 388.32 274.04 388.27 274.01
  Q 388.14 273.94 388.04 273.88
  Q 387.79 273.74 387.51 273.82
  Q 377.83 276.45 367.81 276.39
  C 365.96 276.38 364.35 277.23 362.50 277.57
  Q 361.97 277.67 361.57 278.03
  Q 360.06 279.40 358.05 278.60
  Q 357.65 278.45 357.26 278.59
  Q 353.12 280.05 349.40 278.32
  Q 349.02 278.14 348.98 277.73
  L 348.62 273.88
  Q 348.56 273.30 348.75 272.75
  Q 350.28 268.22 350.93 263.46
  Q 351.35 260.37 350.34 257.61
  Q 349.05 254.09 347.02 250.86
  A 0.37 0.37 0.0 0 0 346.34 250.98
  Q 346.26 251.34 345.82 251.54
  Q 345.64 251.63 345.61 251.43
  L 345.02 246.68
  L 341.99 225.76
  Q 338.35 215.03 333.10 205.49
  Q 329.39 198.95 323.12 192.82
  Q 322.71 191.35 324.45 189.96
  Q 329.19 186.17 333.10 182.18
  C 337.54 177.68 341.38 174.35 343.25 169.40
  L 346.46 162.27
  Q 347.16 161.16 347.32 159.72
  Q 348.35 155.93 347.60 151.97
  Q 346.48 148.72 343.05 146.57
  Q 335.83 143.87 327.37 146.29
  L 320.11 148.38
  L 309.29 153.44
  Q 308.89 153.03 307.63 153.13
  A 1.44 1.43 22.1 0 0 306.82 153.47
  Q 302.56 157.10 294.52 164.23
  Q 293.46 165.17 292.47 164.81
  L 283.42 160.51
  Q 263.39 153.90 241.20 155.79
  Q 213.59 158.28 192.46 176.67
  C 182.68 182.66 173.81 194.56 168.24 204.07
  Q 156.33 223.58 156.28 245.94
  L 156.89 265.57
  L 157.81 271.49
  L 157.64 272.08
  Q 157.49 272.62 156.93 272.61
  Q 156.77 272.61 156.60 272.61
  Q 156.14 272.63 156.14 272.17
  L 156.13 270.60
  Q 156.13 269.53 155.48 270.38
  L 153.93 272.42
  A 0.70 0.70 0.0 0 1 153.06 272.62
  Q 151.10 271.64 149.61 273.39
  Q 149.27 273.78 148.76 273.74
  Q 146.82 273.60 145.11 274.37
  Q 145.01 274.41 144.93 274.33
  L 144.62 274.03
  Q 144.48 273.88 144.28 273.92
  Q 142.08 274.29 139.88 274.62
  Q 139.80 274.64 135.72 275.60
  Q 133.39 276.16 130.93 275.77
  Q 130.40 275.69 129.88 275.84
  L 125.82 277.08
  Q 125.36 277.22 125.11 276.80
  Q 124.64 276.02 123.64 275.93
  C 122.16 275.81 121.67 277.24 119.82 276.28
  Q 119.36 276.04 119.01 276.44
  Q 117.16 278.54 114.45 279.09
  Q 113.82 279.22 113.87 279.86
  Q 113.96 280.99 113.07 280.67
  A 0.76 0.75 -82.8 0 0 112.07 281.45
  Q 112.43 285.38 111.07 288.98
  Q 110.75 231.34 111.36 173.75
  Q 111.50 160.90 115.14 150.02
  C 121.49 131.03 138.36 116.41 156.96 109.90
  C 166.33 106.63 175.95 106.60 186.37 106.41
  Q 250.68 105.28 315.00 106.08
  C 322.53 106.18 330.55 106.52 337.59 108.12
  Q 366.80 114.75 381.65 141.57
  C 387.42 151.97 389.10 163.77 389.13 175.50
  Q 389.25 224.00 389.24 272.43
  Z"
/>
<path fill="#ffcd06" d="
  M 343.05 146.57
  C 337.92 149.34 333.23 149.46 331.64 156.09
  Q 330.14 157.09 329.48 159.28
  Q 329.53 159.56 329.32 159.97
  Q 329.43 158.55 328.95 159.00
  Q 327.72 157.37 325.51 156.23
  Q 325.44 155.44 325.33 156.14
  Q 325.18 154.15 326.31 152.66
  A 0.72 0.67 -22.6 0 0 326.45 152.35
  L 327.34 147.44
  A 0.18 0.18 0.0 0 0 327.24 147.25
  Q 327.07 147.16 326.90 147.12
  Q 326.45 147.01 326.89 146.87
  Q 327.11 146.79 327.32 146.77
  A 0.34 0.33 2.3 0 0 327.61 146.51
  Q 327.67 146.28 327.37 146.29
  Q 335.83 143.87 343.05 146.57
  Z"
/>
<path fill="#e87525" d="
  M 327.37 146.29
  Q 327.67 146.28 327.61 146.51
  A 0.34 0.33 2.3 0 1 327.32 146.77
  Q 327.11 146.79 326.89 146.87
  Q 326.45 147.01 326.90 147.12
  Q 327.07 147.16 327.24 147.25
  A 0.18 0.18 0.0 0 1 327.34 147.44
  L 326.45 152.35
  A 0.72 0.67 -22.6 0 1 326.31 152.66
  Q 325.18 154.15 325.33 156.14
  Q 321.33 154.87 321.13 151.50
  Q 320.99 149.12 320.11 148.38
  L 327.37 146.29
  Z"
/>
<path fill="#33d607" d="
  M 343.05 146.57
  Q 346.48 148.72 347.60 151.97
  Q 347.87 153.62 347.36 154.74
  Q 347.17 155.18 346.73 154.97
  Q 346.11 154.66 345.02 154.68
  Q 340.86 154.77 337.76 155.58
  Q 336.40 155.93 334.73 155.86
  Q 333.23 155.79 331.64 156.09
  C 333.23 149.46 337.92 149.34 343.05 146.57
  Z"
/>
<path fill="#f80331" d="
  M 320.11 148.38
  Q 320.99 149.12 321.13 151.50
  Q 321.33 154.87 325.33 156.14
  Q 325.44 155.44 325.51 156.23
  Q 321.35 155.92 320.63 152.89
  A 0.79 0.78 -19.8 0 0 319.51 152.37
  L 310.74 156.75
  Q 310.41 156.91 310.37 157.28
  Q 310.33 157.70 310.71 157.80
  Q 306.89 154.31 309.29 153.44
  L 320.11 148.38
  Z"
/>
<path fill="#15ef72" d="
  M 347.60 151.97
  Q 348.35 155.93 347.32 159.72
  Q 347.97 156.36 344.22 156.16
  Q 336.20 155.74 329.78 158.64
  Q 329.63 158.96 329.48 159.28
  Q 330.14 157.09 331.64 156.09
  Q 333.23 155.79 334.73 155.86
  Q 336.40 155.93 337.76 155.58
  Q 340.86 154.77 345.02 154.68
  Q 346.11 154.66 346.73 154.97
  Q 347.17 155.18 347.36 154.74
  Q 347.87 153.62 347.60 151.97
  Z"
/>
<path fill="#e9194b" d="
  M 325.51 156.23
  Q 327.72 157.37 328.95 159.00
  L 325.25 158.12
  Q 324.87 158.03 324.55 158.28
  L 320.93 161.07
  A 0.96 0.95 66.3 0 0 320.58 161.99
  Q 321.05 164.51 319.48 166.38
  Q 319.39 166.49 319.45 166.62
  L 319.65 166.99
  Q 319.82 167.31 319.35 167.15
  Q 319.14 167.08 318.91 167.27
  L 310.91 158.23
  Q 310.12 157.46 310.71 157.80
  Q 310.33 157.70 310.37 157.28
  Q 310.41 156.91 310.74 156.75
  L 319.51 152.37
  A 0.79 0.78 -19.8 0 1 320.63 152.89
  Q 321.35 155.92 325.51 156.23
  Z"
/>
<path fill="#fcf0c5" d="
  M 309.29 153.44
  Q 306.89 154.31 310.71 157.80
  Q 310.12 157.46 310.91 158.23
  Q 310.69 158.80 311.21 159.40
  Q 311.56 159.81 311.03 159.86
  C 309.74 159.99 309.10 160.07 308.17 161.06
  Q 301.37 168.36 293.51 174.43
  Q 286.31 180.00 283.24 182.90
  Q 278.29 187.57 273.51 192.43
  Q 270.63 195.36 266.42 198.52
  Q 260.59 202.89 255.50 208.12
  Q 253.30 210.38 248.61 211.50
  C 246.62 211.97 245.01 213.30 242.74 213.43
  Q 242.23 213.46 241.95 213.87
  Q 241.49 214.53 240.72 214.37
  Q 240.25 214.27 240.05 213.84
  Q 239.86 213.42 239.86 212.94
  L 292.47 164.81
  Q 293.46 165.17 294.52 164.23
  Q 302.56 157.10 306.82 153.47
  A 1.44 1.43 22.1 0 1 307.63 153.13
  Q 308.89 153.03 309.29 153.44
  Z"
/>
<path fill="#15ef72" d="
  M 283.42 160.51
  L 284.10 162.08
  Q 284.31 162.56 283.90 162.88
  Q 280.91 165.25 278.21 167.88
  Q 275.98 170.05 272.58 172.77
  C 270.05 174.78 264.98 178.95 263.52 182.13
  Q 263.31 182.59 262.88 182.85
  Q 261.37 183.78 261.34 185.46
  Q 261.34 185.95 261.05 186.34
  L 255.57 193.81
  Q 255.30 194.18 254.85 194.26
  Q 251.76 194.80 248.82 195.80
  C 245.04 197.09 242.31 195.78 239.46 199.76
  Q 239.16 200.18 238.64 200.15
  Q 236.65 200.04 236.73 201.58
  Q 236.76 202.20 236.14 202.18
  Q 231.30 202.02 230.54 206.50
  A 0.42 0.42 0.0 0 1 229.73 206.55
  Q 229.31 205.08 229.76 203.34
  Q 229.87 202.92 229.74 202.68
  Q 229.56 202.30 229.06 202.36
  Q 228.59 202.41 228.59 202.89
  L 228.69 210.32
  Q 228.69 210.51 228.53 210.40
  Q 228.42 210.33 228.32 210.20
  Q 228.18 210.03 228.17 209.75
  Q 228.09 205.36 228.13 200.96
  L 229.12 191.48
  Q 231.08 178.80 235.58 168.79
  Q 239.67 159.67 241.20 155.79
  Q 263.39 153.90 283.42 160.51
  Z"
/>
<path fill="#fbf80c" d="
  M 241.20 155.79
  Q 239.67 159.67 235.58 168.79
  Q 231.08 178.80 229.12 191.48
  L 227.90 191.79
  A 0.23 0.23 0.0 0 1 227.62 191.57
  L 227.62 191.28
  Q 227.62 190.82 227.17 190.94
  L 219.69 192.93
  Q 219.13 193.08 218.62 192.82
  Q 216.86 191.93 214.94 192.57
  Q 214.55 192.70 214.36 193.05
  Q 213.73 194.18 211.98 193.94
  C 210.19 193.70 207.16 193.61 205.57 194.59
  Q 205.04 194.91 204.74 194.44
  Q 204.53 194.10 204.14 194.18
  Q 197.70 195.46 191.11 195.42
  Q 190.88 195.42 190.88 195.64
  Q 190.88 195.81 190.88 195.98
  Q 190.88 196.14 190.77 196.02
  L 190.59 195.82
  Q 190.02 185.96 192.46 176.67
  Q 213.59 158.28 241.20 155.79
  Z"
/>
<path fill="#08aabe" d="
  M 347.32 159.72
  Q 347.16 161.16 346.46 162.27
  Q 346.84 157.48 340.47 158.80
  Q 339.98 158.91 339.56 159.17
  Q 339.04 159.50 338.45 159.53
  Q 337.69 159.56 337.44 159.71
  Q 336.74 160.12 336.78 160.86
  Q 336.80 161.40 336.26 161.49
  L 332.30 162.16
  Q 331.78 162.25 331.30 162.02
  L 330.01 161.42
  Q 329.57 161.21 329.61 160.73
  L 329.78 158.64
  Q 336.20 155.74 344.22 156.16
  Q 347.97 156.36 347.32 159.72
  Z"
/>
<path fill="#b41a82" d="
  M 328.95 159.00
  Q 329.43 158.55 329.32 159.97
  L 328.82 161.78
  Q 326.75 163.92 323.98 163.07
  A 1.24 1.23 19.2 0 0 322.48 163.79
  Q 321.11 167.19 322.30 170.76
  L 320.94 169.59
  L 318.91 167.27
  Q 319.14 167.08 319.35 167.15
  Q 319.82 167.31 319.65 166.99
  L 319.45 166.62
  Q 319.39 166.49 319.48 166.38
  Q 321.05 164.51 320.58 161.99
  A 0.96 0.95 66.3 0 1 320.93 161.07
  L 324.55 158.28
  Q 324.87 158.03 325.25 158.12
  L 328.95 159.00
  Z"
/>
<path fill="#fedc9f" d="
  M 310.91 158.23
  L 318.91 167.27
  L 320.94 169.59
  Q 316.79 173.56 312.40 177.14
  C 305.87 182.47 300.50 188.55 294.21 193.99
  Q 288.01 199.36 284.04 203.29
  Q 276.16 211.10 267.89 218.50
  C 260.98 224.69 253.80 232.19 246.34 238.57
  Q 239.19 234.46 234.84 233.39
  Q 233.69 233.11 229.40 233.51
  Q 228.77 233.57 228.62 234.19
  Q 228.53 234.56 227.96 234.41
  Q 227.43 234.28 227.12 234.73
  Q 224.84 238.03 221.30 237.26
  Q 219.51 236.87 218.75 235.49
  Q 217.88 233.92 218.55 232.03
  L 229.64 222.15
  Q 235.32 218.01 239.86 212.94
  Q 239.86 213.42 240.05 213.84
  Q 240.25 214.27 240.72 214.37
  Q 241.49 214.53 241.95 213.87
  Q 242.23 213.46 242.74 213.43
  C 245.01 213.30 246.62 211.97 248.61 211.50
  Q 253.30 210.38 255.50 208.12
  Q 260.59 202.89 266.42 198.52
  Q 270.63 195.36 273.51 192.43
  Q 278.29 187.57 283.24 182.90
  Q 286.31 180.00 293.51 174.43
  Q 301.37 168.36 308.17 161.06
  C 309.10 160.07 309.74 159.99 311.03 159.86
  Q 311.56 159.81 311.21 159.40
  Q 310.69 158.80 310.91 158.23
  Z"
/>
<path fill="#1690db" d="
  M 346.46 162.27
  L 343.25 169.40
  Q 340.42 166.39 336.29 167.22
  Q 335.82 167.32 335.49 167.68
  Q 332.94 170.48 329.40 169.94
  Q 328.88 169.86 328.51 170.23
  L 328.27 170.47
  A 0.39 0.39 0.0 0 1 327.64 170.04
  L 328.45 168.22
  Q 328.62 167.85 328.32 167.58
  Q 327.44 166.77 328.08 165.31
  L 328.82 161.78
  L 329.32 159.97
  Q 329.53 159.56 329.48 159.28
  Q 329.63 158.96 329.78 158.64
  L 329.61 160.73
  Q 329.57 161.21 330.01 161.42
  L 331.30 162.02
  Q 331.78 162.25 332.30 162.16
  L 336.26 161.49
  Q 336.80 161.40 336.78 160.86
  Q 336.74 160.12 337.44 159.71
  Q 337.69 159.56 338.45 159.53
  Q 339.04 159.50 339.56 159.17
  Q 339.98 158.91 340.47 158.80
  Q 346.84 157.48 346.46 162.27
  Z"
/>
<path fill="#33d607" d="
  M 283.42 160.51
  L 292.47 164.81
  L 239.86 212.94
  Q 235.32 218.01 229.64 222.15
  L 228.78 218.26
  L 227.98 201.45
  L 228.13 200.96
  Q 228.09 205.36 228.17 209.75
  Q 228.18 210.03 228.32 210.20
  Q 228.42 210.33 228.53 210.40
  Q 228.69 210.51 228.69 210.32
  L 228.59 202.89
  Q 228.59 202.41 229.06 202.36
  Q 229.56 202.30 229.74 202.68
  Q 229.87 202.92 229.76 203.34
  Q 229.31 205.08 229.73 206.55
  A 0.42 0.42 0.0 0 0 230.54 206.50
  Q 231.30 202.02 236.14 202.18
  Q 236.76 202.20 236.73 201.58
  Q 236.65 200.04 238.64 200.15
  Q 239.16 200.18 239.46 199.76
  C 242.31 195.78 245.04 197.09 248.82 195.80
  Q 251.76 194.80 254.85 194.26
  Q 255.30 194.18 255.57 193.81
  L 261.05 186.34
  Q 261.34 185.95 261.34 185.46
  Q 261.37 183.78 262.88 182.85
  Q 263.31 182.59 263.52 182.13
  C 264.98 178.95 270.05 174.78 272.58 172.77
  Q 275.98 170.05 278.21 167.88
  Q 280.91 165.25 283.90 162.88
  Q 284.31 162.56 284.10 162.08
  L 283.42 160.51
  Z"
/>
<path fill="#660ecd" d="
  M 328.82 161.78
  L 328.08 165.31
  Q 325.61 170.36 325.23 174.55
  Q 323.40 173.01 322.30 170.76
  Q 321.11 167.19 322.48 163.79
  A 1.24 1.23 19.2 0 1 323.98 163.07
  Q 326.75 163.92 328.82 161.78
  Z"
/>
<path fill="#0378ff" d="
  M 328.08 165.31
  Q 327.44 166.77 328.32 167.58
  Q 328.62 167.85 328.45 168.22
  L 327.64 170.04
  A 0.39 0.39 0.0 0 0 328.27 170.47
  L 328.51 170.23
  Q 328.88 169.86 329.40 169.94
  Q 332.94 170.48 335.49 167.68
  Q 335.82 167.32 336.29 167.22
  Q 340.42 166.39 343.25 169.40
  C 341.38 174.35 337.54 177.68 333.10 182.18
  L 325.23 174.55
  Q 325.61 170.36 328.08 165.31
  Z"
/>
<path fill="#e78940" d="
  M 320.94 169.59
  L 322.30 170.76
  Q 323.40 173.01 325.23 174.55
  L 333.10 182.18
  Q 329.19 186.17 324.45 189.96
  Q 322.71 191.35 323.12 192.82
  Q 316.69 197.03 310.90 203.13
  L 260.93 249.43
  L 255.50 254.85
  Q 254.06 254.58 253.79 255.56
  Q 253.69 255.92 253.35 256.07
  L 251.00 257.08
  Q 250.62 257.24 250.22 257.22
  Q 246.74 257.02 243.43 257.98
  Q 242.96 258.11 242.48 258.00
  C 240.11 257.46 237.96 258.79 236.10 258.98
  Q 232.93 259.31 229.73 259.63
  Q 228.13 259.78 223.72 262.62
  A 0.80 0.79 -41.8 0 1 222.78 262.57
  Q 221.80 261.77 221.02 262.09
  L 246.34 238.57
  C 253.80 232.19 260.98 224.69 267.89 218.50
  Q 276.16 211.10 284.04 203.29
  Q 288.01 199.36 294.21 193.99
  C 300.50 188.55 305.87 182.47 312.40 177.14
  Q 316.79 173.56 320.94 169.59
  Z"
/>
<path fill="#f88204" d="
  M 192.46 176.67
  Q 190.02 185.96 190.59 195.82
  L 190.46 196.81
  C 189.36 195.84 189.95 195.34 189.45 194.25
  Q 189.12 193.53 189.12 194.32
  L 189.12 194.76
  Q 189.12 195.27 188.72 195.58
  Q 183.08 199.87 180.25 200.87
  Q 177.40 201.89 175.95 203.07
  A 2.50 2.38 16.0 0 1 175.09 203.52
  Q 172.96 204.13 171.72 205.99
  Q 171.40 206.47 170.86 206.68
  L 170.07 206.97
  Q 169.58 207.15 169.43 206.65
  L 168.94 205.02
  Q 169.18 204.27 168.24 204.07
  C 173.81 194.56 182.68 182.66 192.46 176.67
  Z"
/>
<path fill="#ffdf07" d="
  M 229.12 191.48
  L 228.13 200.96
  L 227.98 201.45
  Q 227.15 205.13 227.31 208.75
  Q 227.32 208.93 227.18 208.95
  Q 226.94 208.99 226.93 208.74
  L 226.86 203.81
  Q 226.85 203.44 226.94 203.80
  Q 227.25 205.20 225.49 205.22
  C 223.91 205.25 222.30 205.95 220.78 205.84
  Q 216.23 205.53 211.83 206.51
  Q 209.04 207.13 206.62 207.04
  Q 199.04 206.75 191.64 208.25
  L 190.46 196.81
  L 190.59 195.82
  L 190.77 196.02
  Q 190.88 196.14 190.88 195.98
  Q 190.88 195.81 190.88 195.64
  Q 190.88 195.42 191.11 195.42
  Q 197.70 195.46 204.14 194.18
  Q 204.53 194.10 204.74 194.44
  Q 205.04 194.91 205.57 194.59
  C 207.16 193.61 210.19 193.70 211.98 193.94
  Q 213.73 194.18 214.36 193.05
  Q 214.55 192.70 214.94 192.57
  Q 216.86 191.93 218.62 192.82
  Q 219.13 193.08 219.69 192.93
  L 227.17 190.94
  Q 227.62 190.82 227.62 191.28
  L 227.62 191.57
  A 0.23 0.23 0.0 0 0 227.90 191.79
  L 229.12 191.48
  Z"
/>
<path fill="#e9194b" d="
  M 323.12 192.82
  Q 329.39 198.95 333.10 205.49
  Q 322.72 209.72 313.19 215.20
  C 311.01 216.46 307.21 216.33 304.73 216.23
  Q 304.31 216.22 304.10 216.57
  Q 302.76 218.76 300.40 216.78
  A 0.57 0.57 0.0 0 1 300.28 216.04
  Q 301.82 213.62 303.99 211.63
  Q 306.70 209.16 308.05 207.64
  Q 310.82 204.49 314.08 201.82
  Q 314.95 201.10 314.76 200.70
  Q 314.62 200.42 314.43 200.67
  Q 312.07 203.77 310.90 203.13
  Q 316.69 197.03 323.12 192.82
  Z"
/>
<path fill="#e87525" d="
  M 190.46 196.81
  L 191.64 208.25
  L 191.94 210.64
  Q 191.59 211.37 191.86 212.48
  A 0.96 0.96 0.0 0 1 191.48 213.50
  Q 186.41 217.07 180.61 219.25
  A 0.36 0.36 0.0 0 0 180.38 219.64
  L 180.51 220.79
  Q 180.59 221.44 179.95 221.56
  L 175.73 222.35
  Q 175.15 222.46 174.95 223.01
  Q 174.63 223.85 173.64 223.59
  Q 173.39 223.52 173.38 223.27
  Q 173.37 223.13 173.37 223.00
  Q 173.38 222.71 172.65 222.82
  Q 172.45 222.85 172.20 222.74
  Q 169.43 214.03 168.94 205.02
  L 169.43 206.65
  Q 169.58 207.15 170.07 206.97
  L 170.86 206.68
  Q 171.40 206.47 171.72 205.99
  Q 172.96 204.13 175.09 203.52
  A 2.50 2.38 16.0 0 0 175.95 203.07
  Q 177.40 201.89 180.25 200.87
  Q 183.08 199.87 188.72 195.58
  Q 189.12 195.27 189.12 194.76
  L 189.12 194.32
  Q 189.12 193.53 189.45 194.25
  C 189.95 195.34 189.36 195.84 190.46 196.81
  Z"
/>
<path fill="#df0128" d="
  M 333.10 205.49
  Q 338.35 215.03 341.99 225.76
  Q 340.73 225.83 340.58 226.09
  Q 339.83 222.29 337.11 219.69
  Q 336.78 219.37 336.74 218.92
  Q 336.31 214.67 333.47 211.48
  Q 333.15 211.12 332.68 211.05
  Q 331.21 210.83 329.74 210.49
  Q 329.66 210.47 328.89 210.12
  Q 328.13 209.77 327.65 211.02
  A 1.01 1.00 -88.6 0 1 327.02 211.63
  C 325.60 212.11 324.76 212.43 323.73 213.63
  Q 321.32 216.42 318.06 218.22
  Q 317.59 218.48 317.34 218.94
  Q 316.08 221.30 313.80 222.37
  Q 313.30 222.60 312.99 223.06
  Q 311.58 225.10 309.57 226.65
  Q 309.17 226.95 308.67 226.96
  Q 307.71 226.97 307.54 227.93
  Q 307.46 228.41 307.09 228.73
  Q 304.95 230.58 302.97 232.51
  Q 302.33 233.12 300.99 235.42
  C 299.53 237.92 297.06 237.98 296.12 241.56
  Q 296.06 241.79 296.26 241.66
  Q 298.90 239.99 301.82 239.62
  A 0.43 0.41 -73.2 0 0 302.10 239.46
  Q 302.21 239.32 302.30 239.18
  Q 302.55 238.80 302.99 238.69
  Q 306.92 237.77 310.50 235.91
  Q 310.64 235.84 310.80 235.90
  Q 311.12 236.02 310.83 236.21
  C 308.69 237.62 307.37 238.22 304.38 239.38
  Q 302.76 240.01 301.10 241.23
  Q 296.84 244.37 292.55 247.49
  C 290.66 248.87 289.41 250.44 287.98 252.24
  Q 288.61 252.19 287.72 252.50
  L 283.15 256.32
  Q 276.36 261.63 268.65 264.71
  Q 268.12 264.92 267.59 264.73
  L 267.00 264.53
  Q 266.27 264.27 266.13 265.03
  Q 266.09 265.25 265.87 265.37
  Q 265.54 265.54 265.73 265.22
  Q 266.21 264.43 265.43 263.76
  A 1.70 1.69 42.0 0 1 265.30 261.31
  Q 267.87 258.60 270.50 255.37
  Q 271.21 254.50 272.31 254.33
  A 0.98 0.95 10.3 0 0 273.00 253.87
  Q 274.17 251.91 276.07 250.51
  Q 276.48 250.22 276.98 250.11
  Q 279.27 249.61 280.48 247.77
  Q 282.27 245.06 282.33 244.99
  Q 283.73 243.43 285.15 241.86
  Q 285.41 241.57 285.55 241.20
  Q 285.95 240.14 286.92 240.11
  A 1.12 1.11 20.8 0 0 287.71 239.76
  Q 291.85 235.33 296.14 231.08
  Q 296.79 230.44 300.13 226.72
  Q 302.21 224.41 304.72 222.48
  A 0.68 0.67 79.3 0 0 304.94 222.15
  Q 305.31 220.84 306.45 220.04
  Q 307.42 219.35 306.40 219.61
  Q 306.15 219.68 305.89 219.90
  Q 304.14 221.40 301.19 223.47
  Q 300.17 224.19 296.05 226.31
  Q 293.37 227.69 291.16 229.79
  Q 290.03 230.87 289.11 231.43
  Q 287.99 232.11 286.84 232.76
  Q 285.31 233.62 283.67 235.10
  Q 280.06 238.39 275.39 240.12
  A 1.50 1.50 0.0 0 0 274.57 240.84
  Q 273.13 243.50 269.91 243.74
  Q 269.36 243.78 269.11 244.26
  Q 268.33 245.77 266.44 246.13
  Q 266.18 246.18 266.13 246.44
  Q 266.10 246.63 266.14 246.79
  Q 266.31 247.38 265.70 247.33
  Q 263.08 247.10 261.89 249.66
  Q 261.66 250.16 261.20 249.85
  Q 261.02 249.73 260.93 249.43
  L 310.90 203.13
  Q 312.07 203.77 314.43 200.67
  Q 314.62 200.42 314.76 200.70
  Q 314.95 201.10 314.08 201.82
  Q 310.82 204.49 308.05 207.64
  Q 306.70 209.16 303.99 211.63
  Q 301.82 213.62 300.28 216.04
  A 0.57 0.57 0.0 0 0 300.40 216.78
  Q 302.76 218.76 304.10 216.57
  Q 304.31 216.22 304.73 216.23
  C 307.21 216.33 311.01 216.46 313.19 215.20
  Q 322.72 209.72 333.10 205.49
  Z"
/>
<path fill="#ffcd06" d="
  M 227.98 201.45
  L 228.78 218.26
  Q 229.08 222.51 224.58 221.02
  Q 224.15 220.87 223.69 220.94
  L 196.06 225.15
  Q 193.33 218.41 191.94 210.64
  L 191.64 208.25
  Q 199.04 206.75 206.62 207.04
  Q 209.04 207.13 211.83 206.51
  Q 216.23 205.53 220.78 205.84
  C 222.30 205.95 223.91 205.25 225.49 205.22
  Q 227.25 205.20 226.94 203.80
  Q 226.85 203.44 226.86 203.81
  L 226.93 208.74
  Q 226.94 208.99 227.18 208.95
  Q 227.32 208.93 227.31 208.75
  Q 227.15 205.13 227.98 201.45
  Z"
/>
<path fill="#f80331" d="
  M 168.24 204.07
  Q 169.18 204.27 168.94 205.02
  Q 169.43 214.03 172.20 222.74
  Q 176.15 234.23 178.80 239.24
  Q 180.58 242.61 186.87 250.21
  Q 184.51 252.89 180.51 253.86
  C 177.76 254.53 176.16 255.40 173.94 256.68
  Q 173.75 256.79 173.57 256.79
  Q 173.37 256.78 173.16 256.73
  Q 172.69 256.61 172.26 256.83
  Q 168.39 258.83 165.01 255.50
  Q 159.41 250.00 157.58 243.42
  Q 157.36 242.63 157.10 243.41
  L 156.28 245.94
  Q 156.33 223.58 168.24 204.07
  Z"
/>
<path fill="#f80331" d="
  M 340.58 226.09
  Q 332.12 228.01 324.14 230.92
  Q 322.40 231.55 320.91 232.74
  Q 320.55 233.03 320.10 233.13
  Q 318.62 233.44 315.67 234.95
  Q 306.62 239.54 298.21 244.83
  L 287.98 252.24
  C 289.41 250.44 290.66 248.87 292.55 247.49
  Q 296.84 244.37 301.10 241.23
  Q 302.76 240.01 304.38 239.38
  C 307.37 238.22 308.69 237.62 310.83 236.21
  Q 311.12 236.02 310.80 235.90
  Q 310.64 235.84 310.50 235.91
  Q 306.92 237.77 302.99 238.69
  Q 302.55 238.80 302.30 239.18
  Q 302.21 239.32 302.10 239.46
  A 0.43 0.41 -73.2 0 1 301.82 239.62
  Q 298.90 239.99 296.26 241.66
  Q 296.06 241.79 296.12 241.56
  C 297.06 237.98 299.53 237.92 300.99 235.42
  Q 302.33 233.12 302.97 232.51
  Q 304.95 230.58 307.09 228.73
  Q 307.46 228.41 307.54 227.93
  Q 307.71 226.97 308.67 226.96
  Q 309.17 226.95 309.57 226.65
  Q 311.58 225.10 312.99 223.06
  Q 313.30 222.60 313.80 222.37
  Q 316.08 221.30 317.34 218.94
  Q 317.59 218.48 318.06 218.22
  Q 321.32 216.42 323.73 213.63
  C 324.76 212.43 325.60 212.11 327.02 211.63
  A 1.01 1.00 -88.6 0 0 327.65 211.02
  Q 328.13 209.77 328.89 210.12
  Q 329.66 210.47 329.74 210.49
  Q 331.21 210.83 332.68 211.05
  Q 333.15 211.12 333.47 211.48
  Q 336.31 214.67 336.74 218.92
  Q 336.78 219.37 337.11 219.69
  Q 339.83 222.29 340.58 226.09
  Z"
/>
<path fill="#f25904" d="
  M 191.94 210.64
  Q 193.33 218.41 196.06 225.15
  Q 198.28 235.66 205.12 242.29
  L 193.84 250.42
  L 190.29 252.32
  L 186.87 250.21
  Q 180.58 242.61 178.80 239.24
  Q 176.15 234.23 172.20 222.74
  Q 172.45 222.85 172.65 222.82
  Q 173.38 222.71 173.37 223.00
  Q 173.37 223.13 173.38 223.27
  Q 173.39 223.52 173.64 223.59
  Q 174.63 223.85 174.95 223.01
  Q 175.15 222.46 175.73 222.35
  L 179.95 221.56
  Q 180.59 221.44 180.51 220.79
  L 180.38 219.64
  A 0.36 0.36 0.0 0 1 180.61 219.25
  Q 186.41 217.07 191.48 213.50
  A 0.96 0.96 0.0 0 0 191.86 212.48
  Q 191.59 211.37 191.94 210.64
  Z"
/>
<path fill="#feb418" d="
  M 228.78 218.26
  L 229.64 222.15
  L 218.55 232.03
  Q 212.76 237.52 205.12 242.29
  Q 198.28 235.66 196.06 225.15
  L 223.69 220.94
  Q 224.15 220.87 224.58 221.02
  Q 229.08 222.51 228.78 218.26
  Z"
/>
<path fill="#cc011d" d="
  M 283.15 256.32
  Q 273.72 264.64 263.17 271.30
  C 261.15 272.57 257.34 274.02 254.82 276.49
  Q 236.76 284.80 217.60 290.48
  L 222.43 285.39
  Q 234.95 274.91 238.36 271.11
  C 244.16 264.64 250.41 260.28 255.50 254.85
  L 260.93 249.43
  Q 261.02 249.73 261.20 249.85
  Q 261.66 250.16 261.89 249.66
  Q 263.08 247.10 265.70 247.33
  Q 266.31 247.38 266.14 246.79
  Q 266.10 246.63 266.13 246.44
  Q 266.18 246.18 266.44 246.13
  Q 268.33 245.77 269.11 244.26
  Q 269.36 243.78 269.91 243.74
  Q 273.13 243.50 274.57 240.84
  A 1.50 1.50 0.0 0 1 275.39 240.12
  Q 280.06 238.39 283.67 235.10
  Q 285.31 233.62 286.84 232.76
  Q 287.99 232.11 289.11 231.43
  Q 290.03 230.87 291.16 229.79
  Q 293.37 227.69 296.05 226.31
  Q 300.17 224.19 301.19 223.47
  Q 304.14 221.40 305.89 219.90
  Q 306.15 219.68 306.40 219.61
  Q 307.42 219.35 306.45 220.04
  Q 305.31 220.84 304.94 222.15
  A 0.68 0.67 79.3 0 1 304.72 222.48
  Q 302.21 224.41 300.13 226.72
  Q 296.79 230.44 296.14 231.08
  Q 291.85 235.33 287.71 239.76
  A 1.12 1.11 20.8 0 1 286.92 240.11
  Q 285.95 240.14 285.55 241.20
  Q 285.41 241.57 285.15 241.86
  Q 283.73 243.43 282.33 244.99
  Q 282.27 245.06 280.48 247.77
  Q 279.27 249.61 276.98 250.11
  Q 276.48 250.22 276.07 250.51
  Q 274.17 251.91 273.00 253.87
  A 0.98 0.95 10.3 0 1 272.31 254.33
  Q 271.21 254.50 270.50 255.37
  Q 267.87 258.60 265.30 261.31
  A 1.70 1.69 42.0 0 0 265.43 263.76
  Q 266.21 264.43 265.73 265.22
  Q 265.54 265.54 265.87 265.37
  Q 266.09 265.25 266.13 265.03
  Q 266.27 264.27 267.00 264.53
  L 267.59 264.73
  Q 268.12 264.92 268.65 264.71
  Q 276.36 261.63 283.15 256.32
  Z"
/>
<path fill="#660ecd" d="
  M 341.99 225.76
  L 345.02 246.68
  Q 346.22 290.81 314.32 321.32
  Q 313.24 322.35 311.15 323.39
  Q 321.91 294.41 312.40 265.26
  Q 311.11 261.30 309.11 258.26
  L 304.51 249.59
  Q 303.65 246.68 301.86 244.64
  Q 301.53 244.25 301.03 244.34
  L 298.21 244.83
  Q 306.62 239.54 315.67 234.95
  Q 318.62 233.44 320.10 233.13
  Q 320.55 233.03 320.91 232.74
  Q 322.40 231.55 324.14 230.92
  Q 332.12 228.01 340.58 226.09
  Q 340.73 225.83 341.99 225.76
  Z"
/>
<path fill="#ffc948" d="
  M 218.55 232.03
  Q 217.88 233.92 218.75 235.49
  Q 219.51 236.87 221.30 237.26
  Q 224.84 238.03 227.12 234.73
  Q 227.43 234.28 227.96 234.41
  Q 228.53 234.56 228.62 234.19
  Q 228.77 233.57 229.40 233.51
  Q 233.69 233.11 234.84 233.39
  Q 239.19 234.46 246.34 238.57
  L 221.02 262.09
  Q 220.57 262.26 220.33 262.66
  L 221.13 261.00
  Q 221.35 260.55 220.93 260.27
  Q 214.24 255.81 206.22 254.65
  A 0.85 0.84 82.0 0 1 205.58 254.16
  Q 205.18 253.29 204.15 253.26
  Q 202.61 253.21 202.24 253.11
  Q 198.30 251.98 193.84 250.42
  L 205.12 242.29
  Q 212.76 237.52 218.55 232.03
  Z"
/>
<path fill="#cc011d" d="
  M 186.87 250.21
  L 190.29 252.32
  Q 178.99 259.05 166.09 263.18
  L 159.52 264.97
  L 156.89 265.57
  L 156.28 245.94
  L 157.10 243.41
  Q 157.36 242.63 157.58 243.42
  Q 159.41 250.00 165.01 255.50
  Q 168.39 258.83 172.26 256.83
  Q 172.69 256.61 173.16 256.73
  Q 173.37 256.78 173.57 256.79
  Q 173.75 256.79 173.94 256.68
  C 176.16 255.40 177.76 254.53 180.51 253.86
  Q 184.51 252.89 186.87 250.21
  Z"
/>
<path fill="#0832d9" d="
  M 304.51 249.59
  Q 301.35 248.43 299.61 250.56
  Q 297.63 253.00 291.65 256.58
  C 290.96 256.99 290.39 257.77 289.81 258.35
  Q 289.43 258.73 289.42 259.26
  Q 289.34 262.69 291.17 267.40
  Q 292.65 271.24 292.55 278.18
  A 0.35 0.35 0.0 0 1 292.02 278.47
  L 290.71 277.68
  Q 290.34 277.46 289.99 277.73
  Q 288.20 279.13 286.35 280.52
  Q 284.51 281.92 283.34 283.70
  Q 281.91 285.87 280.57 288.07
  Q 280.21 288.64 279.72 289.01
  A 1.18 1.14 -14.7 0 0 279.26 289.77
  Q 278.55 294.50 277.31 299.11
  Q 277.31 299.11 277.32 299.12
  Q 277.36 299.13 277.29 299.12
  Q 277.27 299.12 277.27 299.10
  Q 278.02 296.90 277.16 295.24
  L 277.55 289.32
  L 277.97 278.81
  Q 278.28 276.87 277.77 275.05
  L 279.19 271.38
  Q 280.59 266.07 282.22 260.92
  Q 283.01 258.41 284.50 256.45
  Q 286.04 254.44 287.72 252.50
  Q 288.61 252.19 287.98 252.24
  L 298.21 244.83
  L 301.03 244.34
  Q 301.53 244.25 301.86 244.64
  Q 303.65 246.68 304.51 249.59
  Z"
/>
<path fill="#ecf1f4" d="
  M 345.02 246.68
  L 345.61 251.43
  Q 345.64 251.63 345.82 251.54
  Q 346.26 251.34 346.34 250.98
  A 0.37 0.37 0.0 0 1 347.02 250.86
  Q 349.05 254.09 350.34 257.61
  Q 351.35 260.37 350.93 263.46
  Q 350.28 268.22 348.75 272.75
  Q 348.56 273.30 348.62 273.88
  L 348.98 277.73
  Q 349.02 278.14 349.40 278.32
  Q 353.12 280.05 357.26 278.59
  Q 357.65 278.45 358.05 278.60
  Q 360.06 279.40 361.57 278.03
  Q 361.97 277.67 362.50 277.57
  C 364.35 277.23 365.96 276.38 367.81 276.39
  Q 377.83 276.45 387.51 273.82
  Q 387.79 273.74 388.04 273.88
  Q 388.14 273.94 388.27 274.01
  Q 388.32 274.04 388.32 273.98
  Q 388.45 271.49 389.24 272.43
  Q 389.36 318.96 388.77 332.74
  Q 388.06 349.43 377.67 364.17
  Q 362.22 386.08 336.89 391.45
  Q 330.53 392.80 319.02 392.80
  Q 250.52 392.79 182.02 392.75
  Q 170.85 392.74 164.61 391.40
  Q 143.41 386.85 128.22 370.52
  Q 111.78 352.84 111.42 327.75
  Q 111.01 298.77 111.07 288.98
  Q 112.43 285.38 112.07 281.45
  A 0.76 0.75 -82.8 0 1 113.07 280.67
  Q 113.96 280.99 113.87 279.86
  Q 113.82 279.22 114.45 279.09
  Q 117.16 278.54 119.01 276.44
  Q 119.36 276.04 119.82 276.28
  C 121.67 277.24 122.16 275.81 123.64 275.93
  Q 124.64 276.02 125.11 276.80
  Q 125.36 277.22 125.82 277.08
  L 129.88 275.84
  Q 130.40 275.69 130.93 275.77
  Q 133.39 276.16 135.72 275.60
  Q 139.80 274.64 139.88 274.62
  Q 142.08 274.29 144.28 273.92
  Q 144.48 273.88 144.62 274.03
  L 144.93 274.33
  Q 145.01 274.41 145.11 274.37
  Q 146.82 273.60 148.76 273.74
  Q 149.27 273.78 149.61 273.39
  Q 151.10 271.64 153.06 272.62
  A 0.70 0.70 0.0 0 0 153.93 272.42
  L 155.48 270.38
  Q 156.13 269.53 156.13 270.60
  L 156.14 272.17
  Q 156.14 272.63 156.60 272.61
  Q 156.77 272.61 156.93 272.61
  Q 157.49 272.62 157.64 272.08
  L 157.81 271.49
  Q 161.46 286.71 169.40 300.38
  C 174.58 307.53 180.18 316.64 186.99 321.77
  Q 193.85 326.95 200.36 331.93
  Q 201.21 332.02 201.86 332.81
  L 209.12 336.35
  Q 218.14 341.60 225.50 343.28
  Q 239.92 346.59 256.75 345.68
  L 275.99 342.75
  Q 296.20 336.76 311.15 323.39
  Q 313.24 322.35 314.32 321.32
  Q 346.22 290.81 345.02 246.68
  Z"
/>
<path fill="#0253fe" d="
  M 304.51 249.59
  L 309.11 258.26
  L 306.08 253.21
  A 0.75 0.75 0.0 0 0 304.73 253.82
  Q 304.93 254.47 304.27 255.50
  Q 300.70 261.02 295.36 264.86
  C 293.15 266.45 293.91 268.91 293.70 270.76
  Q 293.08 276.01 293.98 281.16
  Q 295.02 287.07 295.07 288.95
  C 295.33 298.77 293.62 307.88 290.96 317.31
  Q 290.31 319.59 289.37 321.47
  Q 285.91 328.39 281.29 334.58
  Q 280.96 335.02 280.44 335.20
  Q 279.27 335.61 278.50 336.51
  Q 278.37 336.66 278.54 336.77
  Q 278.66 336.86 278.77 336.88
  Q 278.77 336.88 278.74 336.90
  Q 277.00 338.48 277.19 340.86
  Q 277.22 341.30 276.80 341.44
  Q 275.29 341.93 275.99 342.75
  L 256.75 345.68
  Q 254.55 345.87 257.28 343.09
  Q 258.30 342.06 258.90 341.20
  C 269.23 326.33 274.52 313.25 277.16 295.24
  Q 278.02 296.90 277.27 299.10
  Q 277.27 299.12 277.29 299.12
  Q 277.36 299.13 277.32 299.12
  Q 277.31 299.11 277.31 299.11
  Q 278.55 294.50 279.26 289.77
  A 1.18 1.14 -14.7 0 1 279.72 289.01
  Q 280.21 288.64 280.57 288.07
  Q 281.91 285.87 283.34 283.70
  Q 284.51 281.92 286.35 280.52
  Q 288.20 279.13 289.99 277.73
  Q 290.34 277.46 290.71 277.68
  L 292.02 278.47
  A 0.35 0.35 0.0 0 0 292.55 278.18
  Q 292.65 271.24 291.17 267.40
  Q 289.34 262.69 289.42 259.26
  Q 289.43 258.73 289.81 258.35
  C 290.39 257.77 290.96 256.99 291.65 256.58
  Q 297.63 253.00 299.61 250.56
  Q 301.35 248.43 304.51 249.59
  Z"
/>
<path fill="#feb418" d="
  M 193.84 250.42
  Q 198.30 251.98 202.24 253.11
  Q 202.61 253.21 204.15 253.26
  Q 205.18 253.29 205.58 254.16
  A 0.85 0.84 82.0 0 0 206.22 254.65
  Q 214.24 255.81 220.93 260.27
  Q 221.35 260.55 221.13 261.00
  L 220.33 262.66
  L 211.21 271.04
  Q 210.07 267.15 203.14 267.46
  A 1.48 1.43 59.1 0 1 202.25 267.22
  Q 199.16 265.19 195.63 264.88
  Q 190.54 264.43 190.44 264.41
  Q 185.98 263.65 181.48 263.05
  Q 178.86 262.71 174.95 263.11
  Q 170.68 263.56 166.09 263.18
  Q 178.99 259.05 190.29 252.32
  L 193.84 250.42
  Z"
/>
<path fill="#1f620c" d="
  M 287.72 252.50
  Q 286.04 254.44 284.50 256.45
  Q 283.01 258.41 282.22 260.92
  Q 280.59 266.07 279.19 271.38
  L 278.63 268.29
  Q 278.51 267.63 277.89 267.87
  L 269.44 271.06
  Q 268.88 271.27 268.62 270.73
  Q 268.50 270.47 268.10 270.65
  A 0.28 0.28 0.0 0 1 267.79 270.20
  Q 268.11 269.89 268.29 269.35
  A 0.14 0.14 0.0 0 0 268.07 269.19
  Q 261.79 273.69 254.82 276.49
  C 257.34 274.02 261.15 272.57 263.17 271.30
  Q 273.72 264.64 283.15 256.32
  L 287.72 252.50
  Z"
/>
<path fill="#0378ff" d="
  M 309.11 258.26
  Q 311.11 261.30 312.40 265.26
  Q 321.91 294.41 311.15 323.39
  Q 296.20 336.76 275.99 342.75
  Q 275.29 341.93 276.80 341.44
  Q 277.22 341.30 277.19 340.86
  Q 277.00 338.48 278.74 336.90
  Q 278.77 336.88 278.77 336.88
  Q 278.66 336.86 278.54 336.77
  Q 278.37 336.66 278.50 336.51
  Q 279.27 335.61 280.44 335.20
  Q 280.96 335.02 281.29 334.58
  Q 285.91 328.39 289.37 321.47
  Q 290.31 319.59 290.96 317.31
  C 293.62 307.88 295.33 298.77 295.07 288.95
  Q 295.02 287.07 293.98 281.16
  Q 293.08 276.01 293.70 270.76
  C 293.91 268.91 293.15 266.45 295.36 264.86
  Q 300.70 261.02 304.27 255.50
  Q 304.93 254.47 304.73 253.82
  A 0.75 0.75 0.0 0 1 306.08 253.21
  L 309.11 258.26
  Z"
/>
<path fill="#e87525" d="
  M 255.50 254.85
  C 250.41 260.28 244.16 264.64 238.36 271.11
  Q 234.95 274.91 222.43 285.39
  Q 220.37 285.31 218.01 286.15
  Q 212.05 288.29 205.31 288.01
  Q 202.47 287.90 200.30 288.57
  Q 196.78 289.67 193.28 290.86
  Q 192.82 291.02 192.33 290.99
  Q 190.81 290.89 188.47 291.87
  L 197.59 283.25
  L 211.21 271.04
  L 220.33 262.66
  Q 220.57 262.26 221.02 262.09
  Q 221.80 261.77 222.78 262.57
  A 0.80 0.79 -41.8 0 0 223.72 262.62
  Q 228.13 259.78 229.73 259.63
  Q 232.93 259.31 236.10 258.98
  C 237.96 258.79 240.11 257.46 242.48 258.00
  Q 242.96 258.11 243.43 257.98
  Q 246.74 257.02 250.22 257.22
  Q 250.62 257.24 251.00 257.08
  L 253.35 256.07
  Q 253.69 255.92 253.79 255.56
  Q 254.06 254.58 255.50 254.85
  Z"
/>
<path fill="#fda309" d="
  M 211.21 271.04
  L 197.59 283.25
  Q 193.80 281.78 189.78 281.76
  Q 189.52 281.76 189.40 281.53
  Q 189.33 281.39 189.22 281.28
  Q 189.06 281.14 188.75 281.13
  Q 177.47 280.72 166.38 278.58
  C 164.53 278.22 163.40 278.46 162.38 276.48
  Q 159.59 271.08 159.52 264.97
  L 166.09 263.18
  Q 170.68 263.56 174.95 263.11
  Q 178.86 262.71 181.48 263.05
  Q 185.98 263.65 190.44 264.41
  Q 190.54 264.43 195.63 264.88
  Q 199.16 265.19 202.25 267.22
  A 1.48 1.43 59.1 0 0 203.14 267.46
  Q 210.07 267.15 211.21 271.04
  Z"
/>
<path fill="#f88204" d="
  M 159.52 264.97
  Q 159.59 271.08 162.38 276.48
  C 163.40 278.46 164.53 278.22 166.38 278.58
  Q 177.47 280.72 188.75 281.13
  Q 189.06 281.14 189.22 281.28
  Q 189.33 281.39 189.40 281.53
  Q 189.52 281.76 189.78 281.76
  Q 193.80 281.78 197.59 283.25
  L 188.47 291.87
  Q 183.92 294.02 181.52 298.45
  L 169.40 300.38
  Q 161.46 286.71 157.81 271.49
  L 156.89 265.57
  L 159.52 264.97
  Z"
/>
<path fill="#1e8605" d="
  M 279.19 271.38
  L 277.77 275.05
  Q 275.14 281.87 270.51 287.49
  L 271.92 282.92
  Q 272.07 282.43 272.46 282.09
  Q 274.55 280.33 275.90 277.92
  Q 276.28 277.24 275.69 277.75
  Q 274.88 278.46 273.84 278.58
  Q 273.35 278.64 272.94 278.91
  C 271.15 280.08 269.04 280.84 267.23 281.83
  Q 263.72 283.75 259.68 283.88
  C 258.22 283.93 256.82 284.57 255.27 284.45
  Q 254.82 284.42 254.43 284.62
  C 252.75 285.47 251.09 286.00 249.65 287.22
  Q 245.11 291.04 239.64 293.33
  Q 239.20 293.51 238.73 293.46
  C 236.17 293.17 233.59 294.21 231.37 294.10
  Q 226.27 293.87 221.20 293.19
  Q 220.79 293.13 220.55 292.80
  Q 220.09 292.18 219.33 292.29
  Q 218.38 292.43 218.13 292.40
  Q 215.81 292.14 213.39 291.85
  L 217.60 290.48
  Q 236.76 284.80 254.82 276.49
  Q 261.79 273.69 268.07 269.19
  A 0.14 0.14 0.0 0 1 268.29 269.35
  Q 268.11 269.89 267.79 270.20
  A 0.28 0.28 0.0 0 0 268.10 270.65
  Q 268.50 270.47 268.62 270.73
  Q 268.88 271.27 269.44 271.06
  L 277.89 267.87
  Q 278.51 267.63 278.63 268.29
  L 279.19 271.38
  Z"
/>
<path fill="#08aabe" d="
  M 277.77 275.05
  Q 278.28 276.87 277.97 278.81
  Q 275.49 282.56 273.47 286.49
  Q 269.51 294.20 262.33 298.76
  Q 262.24 298.53 262.53 298.28
  Q 267.14 293.32 270.51 287.49
  Q 275.14 281.87 277.77 275.05
  Z"
/>
<path fill="#2cb406" d="
  M 270.51 287.49
  Q 267.14 293.32 262.53 298.28
  Q 262.34 297.79 262.38 297.23
  Q 262.40 296.77 262.00 296.99
  Q 261.85 297.07 261.69 297.15
  A 0.15 0.14 85.9 0 1 261.49 296.97
  L 261.58 296.67
  Q 261.78 296.03 261.15 296.27
  Q 260.09 296.70 257.99 297.96
  Q 256.96 298.58 255.79 297.93
  Q 255.44 297.73 255.08 297.93
  Q 248.05 301.73 240.14 302.01
  Q 237.39 302.11 235.42 302.43
  Q 233.05 302.81 230.61 303.07
  Q 230.11 303.12 229.79 303.52
  Q 228.67 304.94 227.00 305.35
  Q 224.28 306.02 223.64 306.29
  Q 221.49 307.20 219.13 307.55
  Q 218.95 307.57 218.83 307.50
  Q 218.64 307.39 218.60 307.18
  Q 218.55 306.86 218.24 306.90
  Q 210.32 307.74 203.35 303.98
  A 1.33 1.29 52.3 0 0 202.43 303.85
  Q 198.89 304.61 197.75 304.09
  Q 194.97 302.83 192.08 301.85
  Q 192.00 301.82 192.00 301.73
  Q 192.00 301.61 192.00 301.48
  Q 192.00 301.44 191.96 301.44
  Q 189.30 301.28 184.10 300.38
  Q 182.00 300.02 181.52 298.45
  L 213.39 291.85
  Q 215.81 292.14 218.13 292.40
  Q 218.38 292.43 219.33 292.29
  Q 220.09 292.18 220.55 292.80
  Q 220.79 293.13 221.20 293.19
  Q 226.27 293.87 231.37 294.10
  C 233.59 294.21 236.17 293.17 238.73 293.46
  Q 239.20 293.51 239.64 293.33
  Q 245.11 291.04 249.65 287.22
  C 251.09 286.00 252.75 285.47 254.43 284.62
  Q 254.82 284.42 255.27 284.45
  C 256.82 284.57 258.22 283.93 259.68 283.88
  Q 263.72 283.75 267.23 281.83
  C 269.04 280.84 271.15 280.08 272.94 278.91
  Q 273.35 278.64 273.84 278.58
  Q 274.88 278.46 275.69 277.75
  Q 276.28 277.24 275.90 277.92
  Q 274.55 280.33 272.46 282.09
  Q 272.07 282.43 271.92 282.92
  L 270.51 287.49
  Z"
/>
<path fill="#14cefb" d="
  M 277.97 278.81
  L 277.55 289.32
  L 273.60 298.46
  Q 273.37 299.01 273.38 298.50
  Q 273.39 298.36 273.37 298.21
  Q 273.30 297.72 272.96 298.09
  Q 270.05 301.25 267.25 304.52
  Q 266.60 305.28 265.05 306.45
  Q 264.02 307.23 262.83 308.46
  Q 259.66 311.73 254.64 315.33
  C 253.43 316.20 252.77 317.56 251.52 318.52
  Q 246.12 322.64 240.29 326.19
  Q 239.92 326.41 239.74 326.80
  Q 239.40 327.55 238.96 328.12
  Q 238.58 328.61 237.65 328.88
  Q 235.11 329.60 233.22 331.44
  Q 232.85 331.79 232.37 331.96
  L 224.15 334.77
  Q 223.80 334.88 223.46 334.78
  L 221.56 334.24
  Q 221.18 334.13 220.84 334.34
  Q 220.04 334.84 218.00 335.66
  Q 216.25 336.36 217.41 338.05
  Q 217.99 338.89 217.01 338.61
  L 209.12 336.35
  L 201.86 332.81
  L 206.22 330.77
  Q 219.87 326.51 229.62 322.12
  Q 247.72 313.99 262.33 298.76
  Q 269.51 294.20 273.47 286.49
  Q 275.49 282.56 277.97 278.81
  Z"
/>
<path fill="#f25904" d="
  M 222.43 285.39
  L 217.60 290.48
  L 213.39 291.85
  L 181.52 298.45
  Q 183.92 294.02 188.47 291.87
  Q 190.81 290.89 192.33 290.99
  Q 192.82 291.02 193.28 290.86
  Q 196.78 289.67 200.30 288.57
  Q 202.47 287.90 205.31 288.01
  Q 212.05 288.29 218.01 286.15
  Q 220.37 285.31 222.43 285.39
  Z"
/>
<path fill="#1ed9f4" d="
  M 277.55 289.32
  L 277.16 295.24
  C 274.52 313.25 269.23 326.33 258.90 341.20
  Q 258.30 342.06 257.28 343.09
  Q 254.55 345.87 256.75 345.68
  Q 239.92 346.59 225.50 343.28
  Q 218.14 341.60 209.12 336.35
  L 217.01 338.61
  Q 217.99 338.89 217.41 338.05
  Q 216.25 336.36 218.00 335.66
  Q 220.04 334.84 220.84 334.34
  Q 221.18 334.13 221.56 334.24
  L 223.46 334.78
  Q 223.80 334.88 224.15 334.77
  L 232.37 331.96
  Q 232.85 331.79 233.22 331.44
  Q 235.11 329.60 237.65 328.88
  Q 238.58 328.61 238.96 328.12
  Q 239.40 327.55 239.74 326.80
  Q 239.92 326.41 240.29 326.19
  Q 246.12 322.64 251.52 318.52
  C 252.77 317.56 253.43 316.20 254.64 315.33
  Q 259.66 311.73 262.83 308.46
  Q 264.02 307.23 265.05 306.45
  Q 266.60 305.28 267.25 304.52
  Q 270.05 301.25 272.96 298.09
  Q 273.30 297.72 273.37 298.21
  Q 273.39 298.36 273.38 298.50
  Q 273.37 299.01 273.60 298.46
  L 277.55 289.32
  Z"
/>
<path fill="#33d607" d="
  M 262.53 298.28
  Q 262.24 298.53 262.33 298.76
  Q 247.72 313.99 229.62 322.12
  Q 219.87 326.51 206.22 330.77
  L 200.36 331.93
  Q 193.85 326.95 186.99 321.77
  C 180.18 316.64 174.58 307.53 169.40 300.38
  L 181.52 298.45
  Q 182.00 300.02 184.10 300.38
  Q 189.30 301.28 191.96 301.44
  Q 192.00 301.44 192.00 301.48
  Q 192.00 301.61 192.00 301.73
  Q 192.00 301.82 192.08 301.85
  Q 194.97 302.83 197.75 304.09
  Q 198.89 304.61 202.43 303.85
  A 1.33 1.29 52.3 0 1 203.35 303.98
  Q 210.32 307.74 218.24 306.90
  Q 218.55 306.86 218.60 307.18
  Q 218.64 307.39 218.83 307.50
  Q 218.95 307.57 219.13 307.55
  Q 221.49 307.20 223.64 306.29
  Q 224.28 306.02 227.00 305.35
  Q 228.67 304.94 229.79 303.52
  Q 230.11 303.12 230.61 303.07
  Q 233.05 302.81 235.42 302.43
  Q 237.39 302.11 240.14 302.01
  Q 248.05 301.73 255.08 297.93
  Q 255.44 297.73 255.79 297.93
  Q 256.96 298.58 257.99 297.96
  Q 260.09 296.70 261.15 296.27
  Q 261.78 296.03 261.58 296.67
  L 261.49 296.97
  A 0.15 0.14 85.9 0 0 261.69 297.15
  Q 261.85 297.07 262.00 296.99
  Q 262.40 296.77 262.38 297.23
  Q 262.34 297.79 262.53 298.28
  Z"
/>
<path fill="#15ef72" d="
  M 206.22 330.77
  L 201.86 332.81
  Q 201.21 332.02 200.36 331.93
  L 206.22 330.77
  Z"
/>
</svg>
